<svg width="280" height="70" xmlns="http://www.w3.org/2000/svg" viewBox="0 0 512 128">
   <path fill="black" d="M162.759 22.218v.747q-.185 4.696-1.573 4.696-1.573 0-2.128-4.696v-.747h-6.476q-1.943 0-1.943-1.708 0-1.814 2.683-1.814h5.736v-.427q.555-3.842 1.943-3.842 1.573 0 1.758 3.842v.427h30.53v-.427Q193.66 14 195.14 14q1.666 0 1.85 4.269v.427h4.164q2.22 0 2.22 1.814 0 1.708-1.942 1.708h-4.441v.427q-.185 4.695-1.665 4.695-1.666 0-2.036-4.695v-.427zm-8.142 5.443q7.216 3.095 11.565 5.976.74.96.74 1.814 0 1.174-1.11 1.174-6.847-2.454-12.12-6.296-.463-.427-.463-1.815.185-.853 1.388-.853zM153.6 41.32q.648 0 1.388.427l11.935 3.949q1.018.32 1.018 1.6V71.31q0 11.099-4.441 20.81-5.921 12.914-13.6 20.171-.463.854-.833.854-.555 0-.555-.854 13.785-15.474 16.098-40.555v-21.77q0-.854-.74-1.708l-10.64-3.842q-.925-.854-.925-1.387 0-1.28 1.295-1.708zm20.91-11.953h24.054q1.572 0 1.572.96-1.11 1.602-1.11 3.31v3.414q-.277 9.819-4.44 16.329-3.609 6.297-7.865 8.111-.925 0-.925-.534 0-.853 1.388-1.28 7.494-7.684 8.512-23.053v-2.988q0-.854-1.018-.854h-20.354q-2.128 0-2.128-1.6 0-1.281 2.313-1.815zm3.7 7.684q.555 0 1.203.854 1.942 7.79 1.942 29.563 0 8.537 6.2 14.514 5.088 5.87 9.528 13.234 4.626 6.723 9.252 17.93 0 .853-.37.853-.648 0-1.203-.854-3.608-5.55-8.326-13.66-5.366-8.111-10.085-12.807-4.44-4.27-6.753-9.392-2.128-5.123-2.128-10.245 0-18.784.37-29.136 0-.854.37-.854zm48.11 1.282q-.74-2.028-1.665-4.162-1.295-2.241-2.22-4.27l-6.569 5.977q-1.295 1.174-2.405 1.174-1.388 0-1.388-1.6.278-.854 1.018-1.815l7.864-7.15q-2.036-5.55-2.22-10.78 0-1.707.554-1.707.463 0 .463 1.28 1.203 4.697 3.33 9.392l5.459-5.122q1.573-.854 2.868-.854 1.203.427 1.203 1.28 0 1.388-1.203 2.242l-6.569 5.443q.555.853 1.203 2.24 7.586 14.515 7.586 26.788 0 32.978-16.098 55.603-1.017 1.281-1.85 1.281-.647 0-.647-.854 14.802-26.04 14.802-56.03 0-7.15-1.943-13.66l-11.01 11.953q-.554 1.28-1.757 1.28-.833 0-.833-1.28 0-.747 1.11-2.028zm26.645-16.542q.185.427.463 1.174.463 5.976.74 13.34h10.547q2.128.32 2.128 1.601 0 1.814-1.758 1.814h-10.824q.37 10.993.37 25.507 0 35.112-.833 40.235-.185.32-.277.747h15.542q2.128.427 2.128 1.814 0 1.708-1.758 1.708h-34.508q-1.758 0-1.758-1.708 0-1.387 2.498-1.814h16.745q-.092-.427-.277-1.174-1.203-7.79-1.203-39.808.093-14.941.278-25.507h-11.472q-1.758 0-1.758-1.814 0-1.28 2.59-1.6H251.3q.185-7.792.37-12.914.278-1.174.555-1.601H238.44q-1.758 0-1.758-1.814 0-1.281 2.498-1.708h25.258q2.127.427 2.127 1.708 0 1.814-1.757 1.814zm55.051 20.811v3.415q0 5.55-.37 10.672 7.124 32.978 28.865 55.177 0 .853-.833.853-.37 0-1.665-.853-18.04-12.38-27.477-45.251-1.758 11.099-5.922 18.783-7.308 15.688-19.706 25.934-.647.534-1.11.534-.647 0-.647-.961 12.397-12.7 18.688-28.922 6.476-18.357 6.476-35.539v-3.842h-25.997q-1.943 0-1.943-1.6 0-1.709 2.683-1.709h25.257v-14.62h-19.891q-1.758 0-1.758-1.708 0-1.601 2.59-1.601h19.06v-.854q.554-6.51 1.757-6.51 1.665 0 1.943 6.51v.854h20.076q2.313 0 2.313 1.6 0 1.708-1.85 1.708h-20.54v14.621h25.443q2.128 0 2.128 1.708 0 1.6-1.758 1.6z" />
   <path fill="orange" d="M382.058 7.804q0 1.595-1.425 6.257-2.216 7.362-7.599 25.89-6.57 22.577-6.57 24.417 0 .859 14.17 50.184 1.187 4.295 1.187 5.276 0 4.172-2.296 4.172-1.741 0-2.77-3.804l-14.328-51.043q-.87-3.19-.87-4.908 0-1.963.87-4.908L376.755 8.05Q377.863 4 379.367 4q2.691 0 2.691 3.804zm-11.636 0q0 1.595-1.345 6.257-2.217 7.362-7.679 25.89-6.649 22.577-6.649 24.417 0 .859 14.328 50.184 1.266 4.295 1.266 5.276 0 4.172-2.454 4.172-1.662 0-2.77-3.804L350.87 69.153q-.871-3.19-.871-4.908 0-1.963.87-4.908L365.12 8.05Q366.306 4 367.73 4q2.691 0 2.691 3.804zm49.808 13.058v-4.05q.642-2.362 3.723-2.812 4.238 0 4.238 3.712v3.15q7.32 0 14.639.45 11.942.9 11.942 5.849 0 5.737-1.156 9.899 1.926 1.687 2.697 3.6 1.284 3.036 2.054 8.998 1.028 8.886 1.028 18.335 1.027 19.91 3.082 31.159 2.183 8.999 2.183 11.586 0 3.262-3.724 3.262-3.596 0-5.137-3.712-3.21-9.449-4.237-34.983 0-12.261-.77-19.348-.9-7.761-1.799-10.348-4.494 4.049-12.199 4.049h-8.603v2.587q4.494.45 9.374.9 3.339 0 3.339 2.812 0 3.15-3.34 3.6-4.237 0-9.373-.45v4.5h12.327q3.981.45 3.981 3.486 0 2.813-3.98 3.262-19.39 0-33.644.45-2.954 0-3.467-4.162 0-2.137 5.65-3.037h11.171v-4.5q-7.447.45-11.942 2.25-3.595 1.688-6.292 5.737-8.347 15.298-9.502 42.858 0 4.049-4.366 4.049-3.082 0-3.467-4.95 1.412-23.846 7.576-38.245 2.953-6.749 7.705-11.248 4.88-5.4 13.483-6.862 3.852-.45 6.805-.45v-2.587h-23.37q-5.265 0-5.265-3.15.385-3.262 5.008-3.262h23.627v-4.5q-10.53 0-20.417.45-4.366 0-4.366-3.486.385-2.812 4.751-3.6h20.032v-4.95q-9.117 0-18.748.45-4.88 0-4.88-3.261 0-1.688 5.523-3.037 9.245-.45 18.105-.45zm7.96 6.299v4.5h2.44q9.375 0 15.282 1.687.128-1.238.128-2.588 0-2.812-3.98-3.15-6.806-.45-13.87-.45zm14.768 12.598q-4.109-1.462-11.3-1.462-1.798 0-3.467.45v4.5h4.623q6.934 0 10.144-3.488zm-6.549 36.783v-1.237q.77-3.262 4.495-3.262 3.98.45 3.98 4.05 0 11.248-1.669 17.21-1.156 12.036-18.748 12.036-18.106 0-19.518-12.936-.9-6.412-1.028-17.998 1.028-2.812 3.724-2.812 3.98 0 4.238 3.262v1.687zm-24.398 6.862q0 2.25.129 3.937h23.756q.128-1.687.256-4.387zm1.156 9.899q2.183 4.949 11.3 4.949 8.604 0 10.53-5.4zM500 64.245q0 1.718-.87 4.908l-14.249 51.043q-1.108 3.804-2.77 3.804-2.454 0-2.454-4.172 0-.981 1.266-5.276 14.328-49.325 14.328-50.184 0-1.84-6.65-24.417l-7.678-25.89q-1.345-4.662-1.345-6.257 0-3.804 2.691-3.804 1.425 0 2.612 4.05l14.248 51.287q.871 2.945.871 4.908zm-11.557 0q0 1.718-.87 4.908l-14.328 51.043q-1.029 3.804-2.77 3.804-2.296 0-2.296-4.172 0-.981 1.188-5.276 14.169-49.325 14.169-50.184 0-1.84-6.57-24.417l-7.6-25.89q-1.424-4.662-1.424-6.257 0-3.804 2.691-3.804 1.504 0 2.612 4.05l14.328 51.287q.87 2.945.87 4.908z" />
   <path fill="red" d="M29.534 7.427c.264-.089.283-.163.056-.222-.758-.197-2.36-.227-4.808-.088-1.163.066-1.135.132.085.2 1.053.059 2.928.102 5.627.129 2.74.028 8.76-.306 18.062-1C57.86 5.75 66.828 5.112 75.465 4.53a239.656 239.656 0 0126.255-.31c8.866.375 15.085 1.471 18.656 3.288 5.001 2.545 7.736 3.461 8.206 2.749l-.347-.121c-1.275.552-1.01 3.583.796 9.094 1.823 5.561 3.203 14.497 4.143 26.806.94 12.31 1.077 24.744.415 37.305-.663 12.56-2.197 21.317-4.603 26.27-2.206 4.543-3.13 7.348-2.771 8.414-.402-1.194-3.015-1.035-7.838.477a53.045 53.06 0 00-1.413.466c-5.445 1.876-14.197 3.282-26.255 4.218a274.327 274.327 0 01-36.478.383c-12.26-.68-20.836-2.215-25.728-4.601-5-2.44-7.805-3.317-8.42-2.631l.357-.117c.815-1.104.35-4.18-1.393-9.228-1.92-5.558-3.341-14.61-4.265-27.156a291.289 291.289 0 01-.315-37.83c.714-12.673 2.265-21.477 4.65-26.41 1.754-3.627 3.26-6.2 4.52-7.723C24.894 6.35 25.79 5.68 26.32 5.86c.53.18 1.103.518 1.717 1.015.614.497 1.112.68 1.496.552zm78.86 14.188c-.055-.055-.266-.068-.634-.039a27.96 27.96 0 01-1.987.064c-.653.002-2.013-.207-4.082-.629-2.07-.422-4.026-.804-5.87-1.145a17.64 17.64 0 00-5.443-.176c-1.786.224-2.95.876-3.493 1.955-.345 1.051-.546 1.8-.6 2.247-.055.447.206.953.783 1.519a9.55 9.55 0 001.795 1.402c.62.369 1.43 1.001 2.432 1.897a18.522 18.522 0 012.699 3.005c.843 1.172 2.02 3.61 3.532 7.31 1.511 3.702 2.927 7.1 4.248 10.195 1.32 3.094 3.094 5.726 5.32 7.894 2.226 2.168 4.562 2.847 7.007 2.038 2.473-.819 4.14-2.786 5-5.903.862-3.117 1.021-6.535.48-10.254-.542-3.72-1.284-7.21-2.227-10.472-.942-3.262-1.884-5.726-2.825-7.39-.767-1.356-1.532-2.328-2.295-2.915-.762-.586-1.366-.816-1.812-.688a6.225 6.225 0 01-1.292.233c-.416.028-.662-.022-.735-.148zm-29.091.024c-1.219-1.467-2.9-2.202-5.045-2.207-2.145-.004-3.979.73-5.5 2.201-.825.8-1.094 1.917-.808 3.352.287 1.435.64 3 1.063 4.696.421 1.695.1 3.977-.961 6.844-1.832 4.587-5.53 10.252-11.09 16.995-5.562 6.743-10.134 10.593-13.714 11.55-1.401.374-2.505.357-3.31-.051-.807-.408-1.296-.981-1.469-1.72a7.544 7.544 0 00-.789-2.04c-.354-.62-.779-.956-1.275-1.008-.496-.052-1.471.405-2.926 1.371-2.16 1.571-3.54 5.3-4.14 11.185-.602 5.886-.46 11.823.424 17.81.885 5.987 2.165 10.084 3.84 12.29 1.182 1.555 2.272 2.63 3.267 3.222.996.592 1.742.833 2.239.724.496-.11 1.111-.38 1.845-.81.733-.43 1.245-.684 1.537-.76.449-.118.907-.036 1.373.248.113.069.248-.06.406-.387.062-.129.446-1.032 1.153-2.708.575-1.366.642-4.181.2-8.446s-.85-8.108-1.221-11.528c-.372-3.42-.016-6.482 1.068-9.185a134.56 134.56 0 011.636-2.886c.347-.584.866-1.116 1.56-1.594.693-.48 1.205-.761 1.537-.845.331-.085 1.243-.307 2.735-.669 1.493-.36 2.823-.705 3.99-1.033 2.952-.829 6.91-1.483 11.876-1.962 4.965-.48 10.065-.57 15.3-.275 5.234.296 9.044 1.095 11.427 2.395 1.524.831 2.704 1.54 3.54 2.125.837.585 1.472 1.224 1.907 1.917.435.693.715 1.28.84 1.761.126.481.305 1.31.537 2.49.232 1.178.497 2.267.797 3.269.386 1.541.455 3.687.207 6.436a82.124 82.124 0 01-1.13 8.072c-.505 2.632-.728 5.181-.669 7.647.06 2.465.59 4.184 1.592 5.158 1.374 1.335 2.719 2.072 4.035 2.21 1.316.14 2.345-.02 3.089-.478.743-.458 1.666-1.194 2.767-2.207.772-.71 1.243-1.458 1.413-2.242.17-.784.196-1.8.075-3.047-.12-1.248-.098-3.02.067-5.314.042-.576.508-3.63 1.399-9.16.89-5.532 1.29-10.179 1.196-13.94-.094-3.761-.958-6.393-2.595-7.897-1.226-1.125-2.341-1.594-3.346-1.406-1.005.188-1.876.707-2.614 1.556-.737.85-1.766 1.464-3.086 1.846-1.32.381-2.908.202-4.764-.537-3.836-1.674-8.436-6.15-13.8-13.429-5.366-7.278-8.59-13.11-9.671-17.491-.458-1.857-.53-3.517-.212-4.982.316-1.465.766-2.494 1.348-3.087a5.402 5.402 0 001.277-2.079c.269-.793.126-1.446-.428-1.959zm-18.921-.004c-1.576-1.3-5.239-1.877-10.987-1.732-5.749.145-9.82.745-12.214 1.8-1.187.523-2.044.727-2.57.611-.079-.018-.13.043-.151.181-.122.773-.45 1.84-.98 3.2-7.048 18.056-7.048 28.363 0 30.922 2.03.737 4.107.407 6.232-.992 2.124-1.398 4.094-3.507 5.909-6.326a102.085 102.085 0 004.94-8.537 265.166 265.242 0 004.297-8.74c1.386-2.955 2.388-4.895 3.007-5.82 1.838-3.046 2.676-4.569 2.517-4.567zM84.38 80.9c-.019-.194-.35-.238-.995-.133-.645.105-1.58.166-2.805.181-.646.01-2.436-.1-5.368-.325-2.933-.225-5.608-.323-8.025-.294-2.417.028-4.114.309-5.092.84-.473.259-.88.459-1.22.601-.339.142-.528.201-.568.178-.039-.023-.076.005-.11.082s-.023.158.033.243c.055.084.051.33-.01.734a11.16 11.16 0 01-.363 1.49c-.057.186-.28.864-.668 2.035a53.214 53.214 0 00-.875 2.841c-.194.725-.447 1.747-.76 3.066-.311 1.32-.478 2.486-.5 3.5a36.362 36.362 0 00.091 3.299 9.438 9.438 0 002.712 6.042c2.892 2.946 7.605 4.432 14.138 4.457 6.533.025 11.276-1.46 14.229-4.457 1.787-1.836 2.77-4.348 2.95-7.536.18-3.188-.075-6-.766-8.434-.691-2.435-1.481-4.462-2.37-6.08-.638-1.16-1.142-1.894-1.513-2.202-.371-.307-.762-.389-1.172-.244-.41.145-.734.183-.972.115z" />
</svg>