<svg xmlns="http://www.w3.org/2000/svg" viewBox="-11 0 5587 1024" width="196" height="36">
   <path fill="blue" d="M.98 793c34-224 34-424 0-600-8-71 33-104 123-96 0 4 2 6 6 6 22 8 45 10 67 6 112-8 223-12 331-12 108 4 234 9 376 17 11 0 34-3 68-11 8 0 12-2 16-6 86-15 129 21 129 107-15 101-19 254-11 460 0 30 2 52 6 67-19 124-85 160-197 112-34-19-71-28-112-28h-235c-71 4-187 8-348 12-26 0-45 9-56 28-90 56-144 35-163-62zm913.999-623c-210-15-441-15-695 0-48 4-73 31-73 79v157c108-60 183-118 224-174 22-38 50-43 84-17 48 45 47 86-5 124-112 71-213 115-303 134v236c0 41 18 58 56 50 30 4 60 3 90-5-4-60-7-118-11-174-8-75 31-109 117-101 41 11 90 17 146 17 64 0 122-3 174-11 71-11 107 20 107 95-8 60-12 119-12 179h51c60 8 93-15 101-67v-84c4-48 6-88 6-118-131-41-238-97-320-168-45-41-53-75-23-101 38-30 73-30 107 0 45 67 124 132 236 196V249c-8-41-27-68-57-79zm-516 584h309V613c-4-30-19-44-45-44h-224c-26 0-40 9-40 28v157zM1655.98 165c26 4 97-1 213-12 15 8 24-15 28-67 0-41 32-54 96-39 34 11 58 35 73 73 4 15 11 22 22 22 75 0 135 2 180 6 48 0 101 1 157 5 38 30 41 53 11 68h-51c-67-4-136-8-207-12-19 45-53 84-101 118 176 48 374 81 595 96 26 4 26 32 0 84-38 56-86 84-146 84-41 0-75-7-101-22-60-38-112-64-157-79-8 26-27 38-57 34h-145c-34 19-34 39 0 61 48-4 101-4 157 0h11c26-26 52-33 78-22 38 15 57 43 57 84 0 60 1 118 5 174 0 19 2 31 6 39-4 38-32 60-84 68-41 4-62-16-62-57V692c0-15-8-23-23-23h-78c-19 4-27 13-23 28 8 48 12 103 12 163-4 34-24 54-62 62-34 0-50-17-50-51V692c0-15-8-23-23-23h-67c-19 0-27 12-23 34v17c4 45 8 92 12 140-15 56-49 68-101 34-19-48-19-115 0-197 8-19-14-28-62-28-26 0-39 12-39 34 19 153-19 234-113 242-64 0-82-23-56-68 71-38 92-116 62-236-8-19-2-35 17-50 22-11 47-11 73 0 8 8 20 11 39 11s43-1 73-5c19 0 34-2 45-6 19 0 29-9 33-28 4-15-1-24-16-28-34 4-77 11-129 22-26 8-46 6-57-5s-9-24 6-39c-22 8-60 18-112 33-19 8-34 13-45 17-105 41-170 37-196-11-26-41-23-65 11-73 243-15 413-58 510-129-41-22-75-28-101-17-22 4-39 0-50-11-11-8-9-20 6-39 26-38 52-51 78-40 45 22 97 41 157 56 45-26 71-52 79-78-269 4-438 24-505 62-22 11-35 7-39-12 0-15 9-37 28-67 34-45 77-60 129-45 8 8 14 10 22 6zm511 291c-56-22-113-48-169-78-56 30-112 56-168 78h337zm1245-319c26 8 66 9 118 5 19 8 37-11 56-56 22-48 56-66 101-51 34 22 45 51 34 85-4 11-6 18-6 22 4 4 12 4 23 0h201c30 22 27 45-11 67h-202c-30 0-50 6-61 17-8 4-17 12-28 23-15 15-25 22-29 22-8 8-11 13-11 17 4 4 12 4 23 0 97 4 155 0 174-11 75-22 109 3 101 78-22 82-27 187-12 314 4 26-7 49-33 68h224c19 0 30 3 34 11s2 19-6 34c-67 124-165 160-292 112-97-26-228-67-392-123-48-19-82-32-101-40-41-15-112-4-213 34-30 11-51 11-62 0-11-15-8-36 11-62 26-52 79-75 157-67 45-8 60-29 45-67-26-19-32-37-17-56 11-26 8-49-11-68-22-15-49-15-79 0 8 112-54 174-185 185 4 48 6 119 6 213 4 34-19 54-67 62-45 11-68-1-68-39 4-78 7-174 11-286 0-112 2-220 6-325 0-34-7-48-22-40-48 15-75 2-79-39 8-60 53-88 135-84 60 11 125 11 196 0 86-8 117 31 95 117-19 48-48 87-89 113 19 26 35 54 50 84 41-41 96-50 163-28 41 26 48 64 22 112-15 15-13 30 6 45 34 26 32 64-6 112 34 11 67 18 101 22 52-52 76-148 68-286 0-15-8-20-23-16-60 38-104 38-134 0-15-26-14-41 5-45 90-34 150-67 180-101-60 0-111 3-152 11-38 4-53-11-45-45 15-45 45-61 90-50zm-84 151c-64 0-107-8-129-23-26-15-23-35 11-61 15-15 36-17 62-6 4 8 22 23 56 45 8 4 13 6 17 6 8 11 11 20 11 28-8 8-17 11-28 11zm-365-67v101c60-15 93-49 101-101-4-22-20-32-50-28-38 0-55 9-51 28zm629 151c-4 11 3 19 22 23h124c15-4 24-12 28-23-4-19-13-28-28-28h-124c-15 0-22 9-22 28zm-584 174c52-41 61-90 23-146-34-19-57-15-68 11v124c-4 15-2 22 6 22 8 4 20 0 39-11zm612-90c-19 0-27 8-23 23-4 19 4 26 23 22h118c19 0 28-5 28-16 0-22-9-33-28-29h-118zm-17 124c-15 0-24 7-28 22-11 41-24 71-39 90 101 22 182 35 246 39-19-8-26-22-22-44v-40c4-22 6-39 6-50s-9-17-28-17h-135zm595-359c0-8 5-13 16-17l6-6c161-19 277-62 348-129 30-34 56-50 78-50 22 4 37 11 45 22 4 26 12 41 23 45 52 26 93 45 123 56 11 8 15 15 11 23 38 0 83-37 135-112 26-41 73-37 140 11 11 15 29 24 51 28 19 11 68 31 146 61 45 19 73 28 84 28 26 30 21 51-17 62-112-22-186-43-224-62-41-8-61-5-57 6-4 26-7 56-11 90-8 15-23 22-45 22-30 0-45-12-45-34v-44c4-26-22-26-78 0-52 26-86 38-101 34-38 0-56-8-56-23s7-26 22-34c-19-11-37-18-56-22-26 4-41 11-45 22-4 94-26 135-67 124-15 0-26-8-34-23-4-48-7-86-11-112-4-4-11-7-22-11-71 48-135 82-191 101-108 26-164 8-168-56zm179 112c78 8 143 11 191 11h101c194 4 359-21 494-73 26-4 45 11 56 45 4 30-8 47-34 51-52 15-101 22-146 22-112 8-180 14-202 22-19 15-19 30 0 45l326-11c22 4 33 15 33 34-8 22-23 34-45 34l-325 11c-19 22-19 45 0 67 48 0 122-3 219-11 94-4 167-7 219-11 19 4 29 17 33 39-4 26-14 39-33 39l-202 11c-78 8-158 11-236 11-11 4-15 12-11 23 4 34 56 56 157 67 168 22 292 19 370-11 60-19 130-58 208-118 8-4 11-4 11 0 4 0 5 3 5 11-22 105-65 187-129 247-30 34-67 48-112 40-213-19-409-53-589-101-56-11-82-38-78-79v-56c0-11-4-17-12-17-38 4-76 6-117 6h-118c-75 11-126 23-152 34-41 22-69 30-84 22-15-4-16-19-5-45 30-45 61-71 95-79 26 0 71-1 135-5 64 0 110-2 140-6 52 0 92-7 118-22 15-22 15-41 0-56-64 4-131 11-202 22-67 19-98 15-90-11 15-41 49-64 101-68 8 11 20 16 39 12h62c34 0 67-4 101-12 19-26 15-45-11-56h-90c-60 0-116-1-168-5-8 0-12-2-12-6h-17c-19-8-28-14-28-22 0-26 12-41 34-45z" />
</svg>