<svg xmlns="http://www.w3.org/2000/svg" width="140" height="32" viewBox="-10 0 4478 1024">
   <path fill="darkred" d="M691.201 305.792c-20.736 12.288-29.185 29.184-25.344 50.688 1.536-1.536-5.376-2.304-20.736-2.304-6.144 0-14.208 3.072-24.192 9.216 4.608 2.303 12.288 6.912 23.04 13.824 11.52 6.912 17.28 18.432 17.28 34.56 0 6.144-4.224 12.672-12.672 19.584-8.448 6.911-15.36 10.368-20.736 10.368-6.144 0-13.056-1.92-20.737-5.76-6.91-3.84-10.367-8.448-10.367-13.824 0-7.68 3.456-12.672 10.367-14.976h10.368c.77 3.84 1.537 7.68 2.305 11.52 1.536 6.144 4.608 9.216 9.216 9.216 3.84 0 8.832-2.688 14.976-8.064 2.303-12.288.383-22.272-5.76-29.952-6.144-7.68-13.824-11.52-23.04-11.52-11.52 0-21.889 3.456-31.105 10.368-16.895 13.056-28.03 21.12-33.407 24.192-1.536 0-4.608-.768-9.216-2.304l147.455-112.896zM713.089 39.68c-117.504 83.712-176.256 129.792-176.256 138.24 0 12.288 12.672 28.8 38.016 49.536 21.503 17.664 35.711 27.263 42.624 28.8 13.055 3.072 33.792 6.528 62.208 10.368 0-1.536.768 1.536 2.304 9.216L516.096 403.712c1.536 4.608 6.912 9.984 16.128 16.128 24.576 17.664 41.473 29.184 50.689 34.56 23.807 13.056 44.927 20.352 63.36 21.888 1.535.768 3.84 2.304 6.911 4.608-2.304 11.52-16.511 23.04-42.624 34.56l1.153 172.8c2.303 3.84 7.295 9.6 14.975 17.28h8.065c6.912 0 14.208-3.072 21.887-9.216 7.68-6.912 14.977-10.752 21.889-11.52l3.456 2.304v9.216c-28.416 22.272-48.769 38.4-61.057 48.384-26.112 22.273-46.463 43.393-61.055 63.36-3.84 0-7.296-1.536-10.368-4.608-3.073-8.448-16.128-26.88-39.168-55.296-5.376-6.912-14.977-13.44-28.8-19.584-13.056-6.143-21.504-10.752-25.344-13.824 1.536-6.144 7.68-9.6 18.432-10.368 11.52-1.536 19.584-7.68 24.192-18.432 2.304-7.68 3.839-17.664 4.607-29.952.769-8.448.769-18.432 0-29.952-1.536-13.056-2.303-18.816-2.303-17.28 0-3.84.383-9.984 1.151-18.432.769-8.448 1.152-15.36 1.152-20.736 0-40.704-16.895-66.048-50.687-76.031-2.304-1.537-6.528-4.225-12.674-8.065-9.215-3.84-16.127-5.76-20.735-5.76-8.449 0-15.36 2.304-20.737 6.912V690.56c1.536.769 3.456 1.153 5.76 1.153l11.52-4.608c8.449-3.84 19.585-14.209 33.409-31.104 14.592-17.664 21.888-31.488 21.888-41.472 0-9.216-3.073-17.664-9.216-25.345-6.144-7.68-12.672-11.52-19.584-11.52-7.681 0-14.977 4.225-21.889 12.673 5.376 1.536 14.208 5.376 26.496 11.52v13.824c-6.911 6.144-13.44 9.216-19.584 9.216-13.823 0-20.735-10.368-20.735-31.104 0-7.68 5.76-14.208 17.279-19.584 8.448-3.84 16.129-5.76 23.04-5.76 11.52 0 20.736 5.376 27.648 16.128 6.913 9.983 10.369 19.584 10.369 28.8 0 22.272-7.296 39.168-21.89 50.688-13.822 10.752-49.534 32.64-107.135 65.663-46.08 25.345-81.024 52.225-104.832 80.641-16.896-19.968-41.472-38.017-73.728-54.145-31.488-16.127-58.368-24.19-80.64-24.19-34.56 0-51.84 11.519-51.84 34.559 0 16.895 9.984 26.88 29.952 29.952 2.304-1.536 3.456-3.456 3.456-5.76 0-.769-1.536-3.456-4.608-8.064-2.304-5.376-3.072-10.752-2.304-16.128 1.536-3.84 4.607-8.064 9.216-12.672 5.376-4.609 9.984-6.912 13.824-6.912 22.273 0 33.408 9.6 33.408 28.8 0 11.52-4.992 20.352-14.976 26.496-9.984 6.912-20.736 10.368-32.256 10.368-13.823 0-26.112-4.992-36.864-14.976-9.984-9.984-14.976-21.12-14.976-33.408 0-17.664 9.6-34.944 28.8-51.84 6.912-3.84 16.512-9.984 28.8-18.432.768-.768 20.352-13.056 58.752-36.864 22.272-14.593 36.096-30.337 41.472-47.232s8.064-52.224 8.064-105.984l-2.304-144c-1.536-10.752-1.536-33.408 0-67.968.768-29.184-1.92-51.455-8.064-66.815-3.84-11.52-11.52-18.433-23.04-20.737-10.752-2.303-20.736-4.223-29.952-5.76-.768 0-16.128-2.303-46.08-6.912-29.184-4.608-52.608-18.047-70.272-40.32C4.99 138.368-.001 120.321-.001 97.281 0 43.52 36.863 16.64 110.591 16.64c10.752 0 23.808 6.912 39.168 20.736 8.448 7.68 14.592 16.897 18.433 27.649 2.303 6.91 3.456 14.207 3.456 21.887 0 19.2-8.448 34.176-25.345 44.928-13.823 8.448-28.415 12.672-43.775 12.672-13.056 0-23.808-4.607-32.256-13.823s-12.673-19.584-12.673-31.105c0-9.983 4.225-18.048 12.673-24.192 8.448-6.144 16.895-9.216 25.344-9.216 6.143 0 13.44 2.689 21.887 8.064 9.216 4.609 13.44 10.369 12.672 17.28-.767 5.377-2.687 14.208-5.76 26.496-.768 2.304 0 3.456 2.304 3.456 7.68 0 14.208-5.376 19.584-16.128 3.841-7.68 5.76-14.208 5.76-19.584 0-16.128-6.144-28.8-18.432-38.016-12.288-9.984-26.88-14.976-43.775-14.976-16.897 0-33.025 6.912-48.385 20.736C26.88 66.56 19.583 81.536 19.583 98.432c0 26.112 10.752 46.464 32.256 61.056 18.433 12.289 39.168 18.432 62.208 18.432 43.777 0 89.472-14.208 137.088-42.624 52.224-30.72 96.384-73.344 132.48-127.872 7.68 7.68 21.504 15.744 41.472 24.192h288v8.064h.001zM173.953 354.176c0 6.144-3.456 10.752-10.368 13.824-6.144 3.072-11.905 5.76-17.28 8.065-27.648 19.2-41.472 37.248-41.472 54.143 0 19.2 22.656 42.24 67.968 69.12v11.52c-35.329 21.505-57.985 36.864-67.968 46.08-19.2 16.896-28.8 35.713-28.8 56.448 0 23.808 10.752 35.712 32.256 35.712 4.608 0 9.6-2.687 14.975-8.063v-6.913c-3.84-2.303-9.215-6.144-16.127-11.52-1.537-4.608-.768-10.368 2.304-17.28 3.072-7.68 7.296-11.52 12.672-11.52 13.823 0 20.736 8.065 20.736 24.193 0 29.952-15.36 44.927-46.08 44.927-7.68 0-14.976-5.76-21.888-17.28-6.912-12.288-10.368-21.888-10.368-28.8 0-8.448 2.688-18.816 8.064-31.104l8.064-19.584c0-8.449-10.752-19.584-32.256-33.408-21.504-14.592-32.256-23.808-32.256-27.648s1.92-6.912 5.76-9.216c6.912-1.536 19.967-10.752 39.167-27.648 19.2-17.664 28.801-31.104 28.801-40.32 0-13.824-11.135-28.032-33.408-42.623a894.743 894.743 0 00-44.929-28.8c-.767-3.841 3.841-8.065 13.825-12.673 13.055-6.911 19.967-10.751 20.736-11.52 30.72-24.576 50.688-46.464 59.904-65.664 3.84-6.912 5.76-16.128 5.76-27.648 0-3.071-2.304-8.831-6.912-17.28-3.84-8.448-8.448-12.671-13.824-12.671H72.577l-3.456 4.607c1.536 3.84 4.992 7.296 10.368 10.368s8.064 7.68 8.064 13.824c0 3.84-2.304 7.68-6.912 11.52-4.609 3.072-8.064 4.608-10.368 4.608-15.36 0-23.04-8.448-23.04-25.343 0-7.681 3.84-14.208 11.52-19.584 8.448-6.145 16.895-9.217 25.344-9.217 12.288 0 21.888 5.376 28.8 16.128 6.912 9.984 10.368 20.352 10.368 31.104 0 1.536-2.304 8.448-6.912 20.736-4.608 12.289-6.912 19.2-6.912 20.736 0 10.752 10.752 24.192 32.256 40.32 21.504 15.36 32.256 23.808 32.256 25.344zM458.497 776.96c0 8.448-3.456 15.744-10.368 21.888-6.912 6.144-13.056 9.217-18.432 9.217-3.072 0-10.752-2.304-23.04-6.913v-16.128c3.071-6.912 7.296-10.368 12.672-10.368 6.144 0 11.904 4.992 17.28 14.976 5.376-3.071 8.064-7.68 8.064-13.824 0-6.911-4.609-12.671-13.824-17.28s-18.048-6.912-26.496-6.912c-22.272 0-54.144 14.976-95.616 44.928h-9.216c7.68-13.824 22.272-26.496 43.776-38.016 22.272-11.52 41.472-17.28 57.6-17.28 6.912 0 16.127 1.92 27.648 5.76s18.048 6.912 19.584 9.216zm97.92-640.512l-141.696-3.456c-5.376 0-12.672 1.92-21.888 5.76.769-3.84 1.536 5.76 2.304 28.8v86.4h8.064c28.416-23.04 77.569-58.752 147.456-107.136 3.84-3.072 5.76-6.528 5.76-10.37v.002zm-178.56 66.816v-70.272h-16.129l-5.76 5.76v146.305c6.144-2.303 12.288-5.76 18.433-10.367 2.304-7.68 3.456-31.488 3.456-71.425zm183.168 142.848c-6.145-3.072-14.593-7.68-25.345-13.824-9.983-6.912-23.04-16.128-39.168-27.649-13.055-14.591-31.488-33.792-55.296-57.6-1.536 1.537-10.752 7.297-27.647 17.281-10.752 6.912-16.897 13.44-18.433 19.584l2.305 119.808c12.288-5.376 26.111-14.592 41.472-27.647 19.967-16.128 29.952-29.952 29.952-41.473 0-18.432-8.832-27.648-26.496-27.648.767 0-4.993 2.688-17.282 8.064 1.537 1.536 3.073 3.456 4.609 5.76 11.52-1.536 17.28 3.072 17.28 13.824 0 8.448-4.993 12.672-14.976 12.672-12.288 0-18.431-8.832-18.431-26.496 0-15.36 10.752-23.04 32.256-23.04 6.912 0 13.824 3.072 20.735 9.216 7.68 6.144 11.52 13.825 11.52 23.04 0 7.68-1.152 13.44-3.455 17.28-10.752 19.2-25.344 35.713-43.777 49.536-9.216 5.376-20.351 14.208-33.407 26.496-2.304 4.608-3.072 13.056-2.305 25.344v12.672h8.065l85.248-57.6c33.024-23.04 57.216-42.24 72.576-57.6zm-218.88-55.296l-2.304-154.368c-6.143-2.304-13.824-3.456-23.04-3.456-16.895 0-24.191 4.608-21.887 13.824l5.76 180.862c28.415-15.36 42.24-27.647 41.472-36.863zm168.192 229.248c-3.072-6.145-5.76-6.145-8.064 0h8.064zm-132.48-97.92v-126.72c-3.072-.768-6.912.769-11.52 4.608s-6.913 6.528-6.913 8.064c-.768 15.36-.383 31.104 1.153 47.232-1.536 6.912-2.689 14.976-3.456 24.192v109.44c12.288-3.073 18.815-7.296 19.584-12.672 1.536-5.376 1.92-23.425 1.152-54.145zm4.608 261.504V497.024h-10.368a823.925 823.925 0 00-12.672 10.367v202.752c6.143 1.536 11.52.001 16.128-4.607 4.608-5.376 6.912-12.672 6.912-21.888zm-38.016 31.104v-32.256c-27.648-15.36-61.824-32.256-102.528-50.688-3.072-2.304-6.145-4.993-9.216-8.064l4.608-3.456h5.76c23.04 11.52 56.064 26.496 99.072 44.928l-2.304-344.448-25.344 16.129c-8.448 4.607-13.056 9.215-13.824 13.823.768 9.216.768 22.272 0 39.168-.769 18.432-1.152 27.264-1.152 26.496 0 29.952 1.92 66.815 5.76 110.592 6.912 1.536 15.36 6.913 25.344 16.129-35.328 22.271-84.864 55.295-148.607 99.071-.767 1.536-1.151 3.456-1.151 5.76 24.575 8.448 46.079 16.896 64.51 25.345 10.752 6.912 25.728 15.36 44.928 25.343 33.025 13.056 48.769 19.584 47.233 19.584 2.303 0 4.608-1.152 6.912-3.456zm820.061-20.736a5562.624 5562.624 0 01-70.272 50.688c-32.256 25.344-52.608 47.232-61.056 65.665-26.112-37.632-39.936-57.601-41.472-59.905-16.128-15.36-38.784-22.272-67.968-20.736-52.992 1.536-89.856 26.88-110.592 76.032-7.68-18.431-21.12-36.863-40.32-55.296-19.2-19.2-37.632-32.64-55.296-40.32 20.736-10.752 33.792-18.432 39.168-23.04 5.376-4.608 8.447-12.671 9.216-24.192v-44.927c0-38.4-2.304-60.673-6.912-66.817-3.84-6.912-12.672-14.591-26.496-23.04v-14.975c26.88 14.592 54.528 21.887 82.944 21.887s59.904-8.064 94.464-24.192c35.328-16.895 62.592-36.48 81.792-58.752 0-11.52.384-27.647 1.152-48.384-20.736-8.448-44.928-21.887-72.576-40.32-35.328-22.272-57.6-36.096-66.816-41.472-36.865 16.128-55.68 34.945-56.448 56.448-.768 12.289 4.224 22.656 14.976 31.104 10.752 7.68 22.656 11.52 35.712 11.52 9.216 0 24.96-4.608 47.232-13.824l5.76 2.304-2.304 9.217c-41.472 29.952-77.184 58.367-107.136 85.247l-9.216-2.304 5.76-16.128c-36.096-21.504-54.144-42.624-54.144-63.36 0-26.112 26.88-58.368 80.64-96.768 9.984-6.912 49.536-31.488 118.654-73.727 79.873 62.208 150.528 99.84 211.97 112.896-26.113 16.128-39.552 24.576-40.32 25.344-13.057 9.984-19.585 20.736-19.585 32.255v259.2c0 18.433 7.68 27.649 23.04 27.649 19.2 0 35.713-9.216 49.536-27.649zm-171.649-48.384L991.709 483.2c-24.577 22.272-55.681 42.24-93.313 59.904-23.807 10.752-36.864 25.728-39.168 44.928-1.536 10.752-1.151 36.096 1.153 76.032 1.536 31.487 20.736 47.232 57.6 47.232 26.112 0 44.928-4.609 56.447-13.825 12.289-9.215 18.433-26.495 18.433-51.84zm619.129-95.616c-14.593 14.593-36.48 35.713-65.664 63.36-26.112-20.735-39.168-59.135-39.168-115.199 0-9.215.384-22.272 1.151-39.168.769-16.895 1.153-28.8 1.153-35.712 0-56.832-33.025-85.248-99.073-85.248-24.575 0-40.319 6.529-47.231 19.584-5.376 9.216-8.065 27.265-8.065 54.145v252.288c54.529 36.096 84.096 54.144 88.705 54.144 1.536 0 10.752-6.529 27.648-19.584 17.664-13.056 27.647-20.352 29.951-21.888l6.912 12.672c-9.216 6.912-30.72 28.8-64.511 65.664-30.72 32.256-46.848 48.384-48.384 48.384-5.376 0-16.128-6.144-32.256-18.432-21.504-16.128-33.025-24.576-34.56-25.345-26.113-16.127-66.049-37.631-119.81-64.511h32.256c15.36 0 23.04-19.584 23.04-58.752 0-27.648-.384-68.737-1.152-123.265V388.737c0-33.792-8.832-50.689-26.496-50.689-4.608 0-19.2 7.68-43.776 23.04l-9.215-14.975c14.591-11.52 36.095-29.185 64.511-52.993a736.06 736.06 0 0124.193-25.343c13.055-13.825 20.735-20.737 23.039-20.737-1.536 0 11.137 12.288 38.016 36.865 26.88 24.575 53.376 36.863 79.489 36.863 24.575 0 46.079-9.216 64.511-27.648 10.752-9.984 24.577-29.568 41.472-58.752 15.36 20.736 35.328 43.392 59.904 67.968 8.449 3.84 20.737 9.984 36.865 18.432v9.217c-23.808 5.376-43.392 16.128-58.752 32.256-17.664 17.664-26.496 38.015-26.496 61.055v76.032c0 12.289 5.376 24.577 16.128 36.865 11.519 11.52 23.423 17.279 35.711 17.279 3.84 0 13.825-1.152 29.953-3.456zm482.65 225.792c0 30.72-10.752 57.984-32.256 81.792-25.344 27.648-60.67 56.833-105.982 87.553-8.448 5.376-47.617 29.183-117.505 71.423l-52.991-48.383c-23.808-19.968-43.777-29.952-59.904-29.952-10.752 0-19.584 1.92-26.497 5.76l-9.215-11.52c44.544-29.952 78.72-54.913 102.527-74.881a12268.205 12268.205 0 0149.535-40.32c20.736-15.36 39.936-23.04 57.6-23.04 11.521 0 22.273 3.84 32.256 11.52 9.984 8.448 14.976 18.817 14.976 31.105 0 9.215-4.992 18.431-14.976 27.647-9.983 9.986-19.584 16.513-28.8 19.584 1.537-4.608 2.304-9.216 2.304-13.822 0-23.809-14.975-35.713-44.927-35.713-13.825 0-24.96 5.376-33.409 16.129-8.448 11.52-12.672 24.191-12.672 38.014 0 11.521 9.216 23.425 27.648 35.712 18.433 13.056 34.177 19.584 47.232 19.584 26.88 0 54.529-11.52 82.945-34.56 29.183-23.04 43.775-48 43.775-74.88 0-21.504-11.136-45.695-33.408-72.575-21.504-26.88-32.256-50.689-32.256-71.425 0-.768-.768-4.224-2.304-10.367-58.368 49.92-105.983 89.471-142.848 118.655-28.416-26.88-56.064-48-82.944-63.36-10.752-4.608-26.112-11.52-46.08-20.736v-8.064c9.984-2.303 19.584-4.224 28.8-5.76 12.288-3.072 18.432-9.6 18.432-19.584V477.44c0-50.689-9.984-80.256-29.952-88.704-5.376-1.536-13.44-4.225-24.192-8.065v-9.216c3.072-1.536 19.969-5.76 50.688-12.672 21.504-4.608 47.616-16.511 78.336-35.711 31.487-19.968 53.376-38.785 65.664-56.449 3.072-6.912 8.831-13.824 17.28-20.736 78.336 62.208 147.457 93.696 207.36 94.465v13.824c-31.488 13.823-47.232 30.72-47.232 50.689V672.13c0-2.304 8.832 8.448 26.495 32.255 17.664 23.808 26.496 47.617 26.496 71.424zm-145.15-124.416V393.344l-117.504-71.424c-3.072 0-9.217 3.84-18.433 11.52l1.153 350.209 49.536 40.319zm566.14-94.464c-2.304 46.849-17.664 85.633-46.08 116.354-12.288 14.592-40.704 37.248-85.248 67.968-35.328 24.576-59.136 48.768-71.424 72.576l-6.912-8.064c-7.68-12.289-25.344-24.576-52.992-36.864-26.88-12.288-48-18.432-63.36-18.432-18.432 0-38.016 7.68-58.752 23.04l-8.064-9.216c41.472-31.488 66.816-51.072 76.032-58.752 28.416-23.04 51.84-44.544 70.272-64.512-15.36-12.288-40.32-23.425-74.88-33.408a3237.068 3237.068 0 00-82.944-19.584 2226.987 2226.987 0 0142.623-20.736c6.912-4.609 10.369-23.04 10.369-55.296 0-65.28-3.073-104.064-9.216-116.353-3.84-7.68-10.752-13.824-20.737-18.433-9.983-5.376-16.895-9.6-20.735-12.672 9.216-1.536 22.656-3.456 40.32-5.76 62.207-9.215 116.352-28.8 162.432-58.752 2.304-1.536 12.672-10.368 31.104-26.496s28.416-24.192 29.952-24.192l31.104 34.56c21.504 22.272 40.32 33.408 56.448 33.408 9.984 0 21.888-4.608 35.713-13.824l6.91 10.369-115.197 96.767c7.68 6.912 24.191 17.28 49.535 31.104 25.345 13.824 43.009 26.88 52.992 39.169 15.36 19.2 22.273 44.544 20.736 76.03zm-123.27-172.8c0-11.52-9.6-23.424-28.8-35.712s-34.944-18.432-47.232-18.432c-13.056 0-26.112 4.608-39.168 13.824-15.36 9.216-23.04 19.584-23.04 31.104v122.112c8.448-2.304 19.968-7.296 34.56-14.976 69.12-53.76 103.68-86.4 103.68-97.92zm54.15 239.616c0-35.328-13.44-65.664-40.32-91.008-26.113-25.344-57.216-38.016-93.312-38.016-12.288 0-24.96 2.688-38.015 8.064-16.128 6.912-24.193 15.744-24.193 26.496 0 1.536.384 3.84 1.153 6.912 47.616 23.04 77.183 34.56 88.703 34.56 6.144 0 13.44-3.84 21.888-11.52 8.449-7.68 13.825-11.52 16.128-11.52 6.912 0 9.985 3.072 9.216 9.216-64.512 47.616-101.376 78.336-110.592 92.16-3.072 4.608-4.608 11.52-4.608 20.736 0 13.056 10.752 25.344 32.256 36.864 19.2 9.984 36.48 14.976 51.84 14.976 23.808 0 44.544-10.368 62.208-31.104 18.432-20.736 27.648-43.008 27.648-66.816zm570.9-284.544c-19.968 8.448-32.256 14.592-36.864 18.432-9.985 7.68-14.977 19.584-14.977 35.711l-1.151 256.897c0 20.735 7.296 37.248 21.887 49.536l23.04 18.431-57.6-1.152c-24.575-.768-50.688 5.76-78.335 19.584-30.72 16.128-54.528 37.248-71.425 63.36l-12.672 13.824c-19.2-16.895-51.84-37.248-97.92-61.056-45.311-23.808-79.487-38.016-102.527-42.624-5.376-.768-11.904-1.92-19.584-3.455 37.632-19.968 56.831-41.088 57.6-63.36l1.152-450.433c0-19.967-6.144-34.56-18.432-43.776-6.144-4.608-19.2-9.984-39.168-16.128l1.152-2.304c40.704-4.608 85.632-26.112 134.784-64.512 46.848-36.096 87.936-54.528 123.264-55.296 36.864-1.536 66.432 7.296 88.704 26.496 22.273 18.432 32.64 42.24 31.104 71.424-.768 26.112-12.287 47.232-34.56 63.36-19.2 13.824-41.855 20.736-67.968 20.736-23.807 0-48.767-9.215-74.88-27.648l-17.28 6.912-3.456-6.912 76.032-80.64-3.456 20.736c0 8.448 6.144 16.128 18.432 23.04 13.055 6.912 26.112 10.368 39.168 10.368 33.024-.769 49.536-12.288 49.536-34.56 0-24.576-9.6-43.392-28.8-56.448-18.433-13.824-42.624-21.504-72.576-23.04-31.488-.768-57.985 14.976-79.488 47.232-18.432 27.648-27.648 59.136-27.648 94.464l-1.152 210.815 173.952-125.567c43.776 52.224 84.48 81.409 122.112 87.552v.001zm-139.39 42.624l-52.992-51.84-103.68 72.575v255.744c31.488 13.056 70.272 38.016 116.354 74.88l40.32-23.04V381.824h-.002zm162.5-34.56l116.354-97.92c26.88 34.56 60.672 63.36 101.376 86.4a1043.823 1043.823 0 01-26.496 9.216c-8.448 2.304-14.592 8.832-18.433 19.584-3.071 10.752-4.607 21.12-4.607 31.105v270.72c.768 33.793 24.576 50.688 71.424 50.688 49.152 0 74.112-17.28 74.88-51.84V389.89c0-26.113-14.592-43.392-43.776-51.84v-4.608c19.968-8.448 35.327-16.896 46.08-25.344 10.752-9.216 20.352-19.968 28.8-32.256a544.426 544.426 0 0117.28-27.648c1.536.768 5.76 6.528 12.671 17.28 14.593 24.576 44.929 51.456 91.01 80.64-6.144 0-14.593-.384-25.346-1.152-20.735.768-31.103 20.736-31.103 59.904v282.24c0 23.04 8.064 34.56 24.192 34.56 6.144 0 13.056-3.456 20.736-10.369 7.68-6.912 12.673-10.752 14.976-11.519 1.536 0 3.84 4.224 6.912 12.672-15.36 11.52-38.4 30.336-69.12 56.448-8.448 7.68-23.807 23.424-46.08 47.231a228.548 228.548 0 00-18.432-28.8c-16.128-20.736-33.408-36.096-51.84-46.08-27.648-13.824-62.592-14.976-104.832-3.455-27.648 7.68-49.152 33.408-64.512 77.183-3.84-15.36-16.128-32.64-36.864-51.84-20.736-19.2-41.856-31.487-63.36-36.863-.768-4.608 2.688-8.064 10.368-10.368 7.68-2.304 14.976-4.225 21.888-5.76 9.216-4.608 16.127-20.736 20.736-48.385V388.738c-.768-36.096-11.52-54.144-32.256-54.144-3.84.768-16.896 7.68-39.168 20.736-1.536-1.536-2.688-4.224-3.456-8.064zm933.97 202.752c-14.593 14.593-36.48 35.713-65.664 63.36-26.112-20.735-39.168-59.135-39.168-115.199 0-9.215.384-22.272 1.151-39.168.769-16.895 1.153-28.8 1.153-35.712 0-56.832-33.025-85.248-99.073-85.248-24.575 0-40.319 6.529-47.231 19.584-5.376 9.216-8.065 27.265-8.065 54.145v252.288c54.529 36.096 84.096 54.144 88.705 54.144 1.536 0 10.752-6.529 27.648-19.584 17.664-13.056 27.648-20.352 29.952-21.888l6.911 12.672c-9.216 6.912-30.72 28.8-64.512 65.664-30.72 32.256-46.847 48.384-48.383 48.384-5.376 0-16.128-6.144-32.256-18.432-21.504-16.128-33.025-24.576-34.56-25.345-26.113-16.127-66.049-37.631-119.81-64.511h32.256c15.36 0 23.04-19.584 23.04-58.752 0-27.648-.384-68.737-1.152-123.265V388.737c0-33.792-8.832-50.689-26.495-50.689-4.609 0-19.2 7.68-43.777 23.04l-9.215-14.975c14.591-11.52 36.095-29.185 64.511-52.993a736.06 736.06 0 0124.193-25.343c13.055-13.825 20.736-20.737 23.04-20.737-1.537 0 11.135 12.288 38.015 36.865 26.88 24.575 53.376 36.863 79.489 36.863 24.575 0 46.079-9.216 64.511-27.648 10.752-9.984 24.576-29.568 41.472-58.752 15.36 20.736 35.328 43.392 59.904 67.968 8.448 3.84 20.737 9.984 36.865 18.432v9.217c-23.808 5.376-43.392 16.128-58.752 32.256-17.665 17.664-26.497 38.015-26.497 61.055v76.032c0 12.289 5.376 24.577 16.128 36.865 11.52 11.52 23.424 17.279 35.712 17.279 3.84 0 13.824-1.152 29.952-3.456h.001zm482.65 225.792c0 30.72-10.752 57.984-32.256 81.792-25.344 27.648-60.67 56.833-105.982 87.553-8.448 5.376-47.616 29.183-117.504 71.423l-52.992-48.383c-23.808-19.968-43.776-29.952-59.904-29.952-10.752 0-19.584 1.92-26.496 5.76l-9.216-11.52c44.544-29.952 78.72-54.913 102.527-74.881a12268.205 12268.205 0 0149.535-40.32c20.736-15.36 39.936-23.04 57.6-23.04 11.521 0 22.273 3.84 32.256 11.52 9.984 8.448 14.976 18.817 14.976 31.105 0 9.215-4.992 18.431-14.976 27.647-9.983 9.986-19.584 16.513-28.8 19.584 1.537-4.608 2.304-9.216 2.304-13.822 0-23.809-14.975-35.713-44.927-35.713-13.825 0-24.96 5.376-33.409 16.129-8.448 11.52-12.672 24.191-12.672 38.014 0 11.521 9.216 23.425 27.648 35.712 18.433 13.056 34.177 19.584 47.232 19.584 26.88 0 54.529-11.52 82.945-34.56 29.183-23.04 43.775-48 43.775-74.88 0-21.504-11.136-45.695-33.407-72.575-21.505-26.88-32.257-50.689-32.257-71.425 0-.768-.767-4.224-2.304-10.367-58.368 49.92-105.983 89.471-142.848 118.655-28.416-26.88-56.064-48-82.944-63.36-10.752-4.608-26.112-11.52-46.08-20.736v-8.064c9.984-2.303 19.584-4.224 28.8-5.76 12.288-3.072 18.432-9.6 18.432-19.584V477.44c0-50.689-9.984-80.256-29.952-88.704-5.376-1.536-13.44-4.225-24.192-8.065v-9.216c3.072-1.536 19.969-5.76 50.688-12.672 21.504-4.608 47.617-16.511 78.336-35.711 31.488-19.968 53.376-38.785 65.664-56.449 3.072-6.912 8.832-13.824 17.28-20.736 78.337 62.208 147.457 93.696 207.36 94.465v13.824c-31.488 13.823-47.232 30.72-47.232 50.689V672.13c0-2.304 8.832 8.448 26.495 32.255 17.664 23.808 26.496 47.617 26.496 71.424zm-145.15-124.416V393.344l-117.504-71.424c-3.072 0-9.217 3.84-18.433 11.52l1.153 350.209 49.536 40.319z" />
</svg>