<svg xmlns="http://www.w3.org/2000/svg" viewBox="-11 0 6567 1024" width="230" height="36">
   <path fill="darkred" d="M6034.4 646c3-15 9-22 19-23s19 2 26 9 10 19 10 35-8 25-22 27-24-6-28-22-5-26-5-26zm-252-125c-4-7-7-12-9-15l-18-20c-6-8-8-26-6-51s2-42 4-52 13-32 35-70l73-127c8-15 20-27 34-37s28-15 40-15 28 10 48 31 29 43 28 65c0 4-2 10-4 19s-3 14-3 15c1 5 3 8 6 10s14 7 34 14 34 16 40 24 9 17 9 27-7 17-23 22c-4 1-15-1-33-7s-35-11-52-13-29-2-36-2c-7 1-13 2-18 4s-16 18-36 48l-34 57c26-10 57-25 93-44s65-26 85-21 30 16 30 32c0 11-7 19-17 26l-47 22c-8 5-14 11-19 19s-7 16-7 25c0 8 3 14 8 14 2 0 10-4 26-12s27-12 33-14 12-2 17 3l13 21c4 4 14 2 30-4 15-6 29-11 40-15s51-17 123-40 110-39 117-47 12-17 14-27 1-15-1-17-4-2-8-1-17 9-39 23l-40 26c-46 30-83 43-111 38s-48-13-59-25-19-24-23-37-6-30-6-51c0-19 4-43 10-72s19-59 35-88 26-49 29-59 5-17 7-21 8-9 18-15 18-9 23-9c0 0 5 1 14 2s16 3 21 5 7 10 9 22l-9 76v10s1 10 3 13c2 4 13 1 31-5s42-8 72-6c22 2 37 4 47 6s20 9 30 19 16 22 16 32-1 17-1 19l-32 133c38 6 57 16 57 29s-3 22-8 26l-47 8-125 50-42 21c0 2-1 4-1 6s0 3 1 6l8 26 11 44 16 25c2 7 4 10 6 10l6-3 121-49c33-13 57-18 75-16s28 7 31 17-8 20-33 32l-127 65c-9 4-19 9-29 13s-18 9-21 11l39 132c1 6 2 13 2 22s-4 16-11 24-19 11-34 11-28-5-40-15-17-20-17-29c0-6 2-11 6-14l45 13c3-2 5-6 5-10s-4-18-11-40c-6-17-9-27-11-29s-5-3-7-1c-1 0-2 2-4 5s-6 8-14 14l-22 23c-7 6-20 15-40 25s-45 15-75 13c-13 0-22-3-26-8s-7-13-8-24 1-20 5-24c1-1 10-3 28-7l54-34 35-14c14-6 26-9 34-10s13-2 13-4-1-4-2-6c-5-9-9-15-13-17s-9-3-15-3c-4 0-11 0-22 2s-19 1-24 1l-36-4-8 2-19-9c2 2 3 5 5 7s3 6 3 10-2 11-6 17c-2 2-13 12-33 30l-17 16c-7 6-21 15-43 28s-43 27-63 42-38 24-53 27-24 2-29-4-7-13-5-23c1-6 6-14 14-25s12-19 11-24c0-2-7-7-20-16s-24-27-33-53-17-40-25-42l-49 25c-8 4-17 5-25 5-12 0-22-3-29-9s-10-14-12-22 8-19 28-35c13-10 43-29 91-55s72-41 75-46 4-9 4-14-2-10-5-16-7-9-12-9c-2 0-8 3-14 7s-12 6-18 8-26-1-61-9zm112 157c0 1 3 8 9 23s14 28 22 38l34 37c10 14 17 17 19 9s1-19-6-33c-4-6-7-14-9-26s-5-28-10-49-11-32-15-32c-2 0-8 3-20 10s-19 12-21 15-3 6-3 8zm236 29c-12-6-21-12-23-16s-3-8-3-12c0-22 9-31 26-29l31-1c14-2 30-3 50-1s31 1 33-1-1-16-8-38l-9-28c-7-16-13-24-17-20l-16 9-35 14c-20 2-34 3-42 3s-16-3-25-8-13-9-13-12l-6-30c-15 12-29 24-44 35s-24 20-28 27-6 12-6 16 0 9 1 15c8 46 14 77 19 95s12 28 22 28l33-24zm67-334l106-44c38-16 64-23 79-23s23 1 25 1l7 2c4 0 8-7 10-23s3-24 3-25c0-13-8-20-22-20-22 0-39 1-49 2l-71 19c-25 5-40 9-45 13s-11 16-20 38zm200 418c0-10 5-20 11-28s19-13 39-14 33 2 41 9 13 17 14 31-3 27-10 38-11 17-12 17l-23-7h-28c-5 0-10-4-17-10s-11-14-13-22-2-12-2-14zm-1126-598l110-59c45-24 78-35 101-33s39 9 48 18 13 20 13 34 1 23 1 27l-7 159 5 240c-1 32-7 52-15 60s-16 12-22 12-10-2-14-7l8-47v-4c0-6-1-10-1-14s-2-14-4-31-5-35-7-55-3-31-3-32l-7-35c-12 4-31 10-59 19s-56 19-86 30c16-2 26-2 33 0s15 6 25 13 14 16 13 27c-2 16-19 29-51 39s-49 17-53 19-7 5-10 8-3 13-1 30c0 5 1 10 1 17l1 56c1 44 5 77 13 98l7 20c10-1 19-2 24-3l18-3c12-2 21-1 29 3 6 4 10 10 10 16s-2 11-4 14c-1 2-5 5-11 9s-10 7-12 7l-24 9c9 17 14 28 14 33v8c0 8-4 16-11 23s-15 6-26-3c-5-4-10-10-14-18l-18-32c-16 3-28 5-36 6l-91 20c-38 8-59 11-66 10-9-1-16-3-22-9s-9-11-9-18 3-13 8-18c4-4 9-6 18-8l17-4 29-7c-8-26-16-46-21-62s-8-25-9-31-4-18-6-36l-8-69c-18-1-31-2-37-4s-32-12-76-29c9 38 16 66 21 83s9 35 12 51 1 26-6 29-16 1-27-8c-2-1-7-8-14-18s-14-20-22-28-16-17-23-26-14-22-22-40-22-53-40-104-31-88-37-113-11-53-13-85-4-55-4-68 1-23 1-33l3-57c0-15 1-26 2-34s4-14 9-18 16-7 30-8 31 6 47 22c9 9 14 18 16 28l3 24c1 4 22 6 65 6s71 5 85 14 24 16 29 22 9 16 9 34c0 6-1 13-2 19l-16 92 4 25c2 18 3 28 4 30l14 19c2 4 4 9 5 13 3 22-19 47-65 74l208-62c-19-22-33-41-42-56s-15-30-19-44-7-38-13-68-9-48-9-53 0-16 2-33c4-37 8-64 12-80s17-23 38-23c20 1 32 8 35 21zm-355 142l51-6c34 2 54 1 58-4l10-16c6-11 9-19 9-25s-7-11-20-16l-57 11c-36 5-54 9-55 11s-1 10 1 24zm31 170l22-6c34-8 52-15 55-20s3-20 0-46-5-40-7-41-16 4-44 14c-24 9-37 14-39 16s-3 7-5 13 3 25 14 56zm203 117l7 33 70-22-4-32zm14 83l7 38 51-15c14-4 22-7 22-9l-2-11-4-23zm91 64c-11 1-19 3-24 4s-12 3-19 5-13 4-19 5-10 2-11 3c-4 3-3 11 2 24l7 18c26-4 51-8 75-13zm8-480l130-25 80-7c2-3 4-17 4-40l2-34c0-14-2-21-6-24s-14 0-30 10c-39 23-65 36-78 41l-97 39zm81 115l92-27c27-8 41-11 41-11l-3-43c-9 2-16 4-20 4l-67 6c-20 3-59 14-117 32 10 20 20 38 31 54zm-1013 143c-6 2-28 9-68 21s-79 21-119 28-67 10-80 9c-38-2-67-15-86-37s-32-43-38-64-14-44-20-71l-33-136c-7-29-14-52-19-67s-7-27-6-34c2-10 7-17 15-23s20-10 37-14l109-22c31-6 83-11 155-14s115-4 130-4h82c50 0 85 13 108 37s35 45 35 63c0 14-4 26-10 36s-16 20-28 32-18 19-18 24l20 33c2 4 3 7 3 10 0 4-1 8-5 11l-44 14-14 20c-2 1-4 1-6 1-3 0-5 0-7-1l-15-13c-4-2-8-4-14-4-10 0-27 2-52 8l-44 9-44 13c-2 0-32 5-88 14l-177 27c2 39 10 64 22 76s30 20 54 20c6 0 17-1 32-3l64-7c4 0 30-5 78-15s80-19 97-30 31-23 39-33l17-24c7-10 16-15 27-16s16 4 18 14 1 20-3 29c-14 28-23 44-28 47l-37 27zm-336-161s58-9 173-29 185-35 211-42 40-11 42-12l13-33 21-44c-3-8-14-9-34-2s-53 11-102 11-110 5-184 15l-136 15c-17 2-27 5-29 9s-1 14 5 29zm326 305l110-23 22-6c8-1 20 1 34 5s26 9 37 16 16 13 16 18-1 8-4 12-8 7-13 8l-203 42 11 137c1 14-5 22-17 24s-21-10-28-33-11-41-12-53l-8-69-94 18c8 22 13 37 16 43s9 16 16 29 11 25 12 37-5 17-19 16c-5 0-11-3-18-9s-15-18-24-34-16-31-21-46-9-24-11-25l-17 2-110 9c-38 4-62 0-74-11s-17-20-15-27c1-5 4-9 10-12s19-6 39-8l114-14 35-6-19-67c-4-11-5-22-5-34s5-16 17-16c6 0 10 3 14 7s6 9 8 15 7 21 15 43l16 46c38-6 75-12 111-18-1-28-2-47-2-59s1-23 2-33 2-19 3-25 4-11 7-15 11-6 23-6 20 14 22 40l3 63zm-1336-265l-3 30 123-79c4-2 5-6 7-14l-20-114c-1-6-3-16-3-28s2-20 8-26 10-8 14-8c2 0 6 3 10 7l15 14c6 7 13 24 21 52s13 44 13 48l2 35c0 10 4 26 10 48s13 47 21 78 12 50 12 58-1 13-5 17-13 5-26 5-31-23-55-68c-13 12-27 24-43 37s-27 22-32 27-10 11-13 18-2 34 4 82l2 71 10 45c2 2 7 3 12 5s14-12 30-42 25-47 25-49c2-10-8-29-26-55s-27-44-25-58c1-8 7-15 15-21s20 4 34 32c37 76 59 123 65 138s11 26 15 32l42 74c1 5 2 10 2 14 0 6-4 13-10 20s-18 0-34-21c-16-20-27-38-34-54s-11-25-14-25-11 12-23 38l-17 32c-9 18-16 30-20 36s-13 10-26 11-28-6-45-22-27-48-30-96l-8-117c0-8-5-14-11-19l-40-9c-18-5-33-24-46-56s-17-72-14-120c1-17 4-44 10-79s15-67 27-96 28-61 46-96 38-52 60-52c14 0 24 8 34 23s15 28 16 41-1 30-9 51zm619 270l17 152c0 2 0 8-1 19s-10 18-28 20l-49-8c-42-2-66-4-71-8s-7-9-5-14c2-6 16-9 41-12s39-8 45-13 6-22 2-50c-2-14-4-44-5-91s-1-83-3-107-1-52 1-82-1-45-10-43c-2 0-7 3-11 6s-21 12-49 30-56 33-83 45-59 22-95 30-57 8-62 0-7-16-7-26c0-5 1-10 3-16s20-22 55-49 75-53 120-79 90-38 134-37c29 1 52 8 71 22s28 30 27 52l-13 46zm-1291 132c-4-15-6-27-8-35s-5-15-7-19-6-10-13-17-13-14-17-20-5-9-1-9l21-2-6-26c-24 10-37 17-37 17l-32 20c0 16 2 30 3 40s2 21 4 35 5 24 8 31l10 27 4 16c3 12 3 20 0 25s-13 1-29-12c-5-4-12-15-22-34s-14-34-16-44-4-22-4-36-2-24-4-30-16-18-41-34-53-48-84-94-52-82-63-106-17-49-19-76l-3-109c-6-40-7-62-1-68s13-9 19-10 20 8 40 26c17 16 27 27 29 33l21 57c5 2 10 3 14 2l181-39-2-26c-24 2-49 4-75 4s-57-4-94-14-64-21-81-35-28-24-32-31-9-18-13-31-7-22-7-27-1-8 1-10 8-3 16-3h26l77 14c15 3 39 1 71-3s59-6 83-8 37-5 42-11 8-16 10-32 5-24 9-26 12 4 22 19l19 27c5 4 30 2 76-8l45-7c22-5 35-8 38-8 7 0 21 7 41 20s32 21 35 24 9 13 16 30 10 29 10 37-8 14-24 17l-230 47-7 31c86-14 136-22 149-22h31c37 2 61 8 72 20s19 23 24 34 8 20 10 28-9 27-31 57c-8 11-23 34-43 67s-30 55-29 65c0 2 0 6 2 12s2 9 2 11l-4 20 3 22c0 7-4 12-11 12s-16-10-28-28l-153 57 3 53 116 68 83 59c2-1 8-7 16-15s14-12 18-10 6 6 7 16 1 21 1 35-5 21-12 21-20-9-40-26-35-29-45-33l-136-57c0 16 1 29 3 36s5 18 11 34 8 29 8 40c0 6-2 10-4 12s-5 1-7-1c-4-3-7-9-10-17l-17-39zm-49-319c2-26 3-42 3-48l-5-46-130 48c-20 8-31 16-34 25s0 20 6 30 12 17 18 19 20 2 40-4 54-14 102-24zm9 129c0-17-1-28-1-33l-3-18c-37 11-56 16-56 16l-36 14c5 10 9 20 13 30s7 15 11 16l28-10zm48-15c33-8 62-18 86-28s44-17 57-20 20-4 22-7 5-10 8-20 3-17 1-19-7-3-17-3c-16 0-30 2-43 5l-92 29c-12 3-19 6-20 8s-2 14-2 37v18zm-3-132c88-21 135-32 142-30l47 14c10-2 18-14 24-35s10-35 14-41 6-13 8-20-14-12-48-12c-6 0-12 1-18 2l-78 19c-54 2-82 5-83 11v21l-5 47zm-657-5c-6 18-10 33-14 41s-9 17-14 27l-32 56c-1 2-5 11-13 27s-13 28-15 34l-11 41-11 27c-4 16 13 55 52 117l14 23c6 10 11 17 17 18l27 2c4 3 7 8 7 15 0 6-7 16-19 29s-37-10-73-70l-54-88c-10 13-22 24-32 30s-19 8-23 4-4-11-1-21l12-20 19-41-45-118c-19-49-29-73-31-73s-8 4-20 11-18 12-21 16-4 9-2 14l42 174c5 20 6 36 5 47s-8 18-22 21-27-12-41-44c-7-16-13-37-17-61l-32-188c-8-40-12-78-11-111s-3-53-13-59l-28-11c-8-4-17-13-28-27s-19-27-23-37-4-17-2-22c2-4 9-7 22-9s56-16 130-41 132-51 172-78 62-42 66-43l41 4 41-4c5 0 14 5 26 11s17 15 18 28-6 31-21 52c-6 9-11 15-15 18l-32 17-126 79-132 46c-6 2-10 5-13 7s-5 10-6 26l-5 59 3 12c24-15 45-30 63-42s38-22 59-28 51-7 91 0 63 15 73 24 12 19 8 32zm-138 195l58-170c5-19 9-32 11-40s0-13-7-15-17 1-28 9l-47 27-14 10-37 22zm-441-70c15-9 32-20 52-33s36-19 50-17c10 2 18 7 26 15s12 15 13 23-1 22-6 42-7 36-7 49c0 8 0 13 1 19l15 104c-3 9-7 15-12 20s-12 7-18 7-10-5-11-15l-24-160c-30 11-47 22-51 31l32 92c1 4 1 8 1 11 0 10-4 19-11 26s-17 11-31 11-28-5-40-15c-10-8-22-26-34-52s-19-43-21-51l-9-42-14-52c-1-3-3-18-6-43l-9-54c-2-13-7-55-14-128s-10-119-8-138c1-10 4-20 9-32s10-16 15-16 12 4 20 10 13 16 16 26l38 140 11 98 62-35-6-190c0-16 2-37 7-61s11-36 19-34c3 1 9 6 17 16s16 31 20 63 6 63 6 89l-3 80c0 9 2 17 4 24l12 39c2 14 2 25-3 33-4 7-14 12-29 17l-41 13c-10 4-21 12-33 22s-16 19-12 26zM388.398 870c-12 6-22 10-28 12s-11 4-12 5l7 41c-2 9-6 14-12 16s-16-4-28-18-21-21-26-23c0 0-10 4-29 10s-30 9-34 9c-2 0-11-1-28-3s-27-5-31-8-5-7-5-10 0-6 2-9c2-5 17-12 45-22s45-15 53-17 12-4 12-6-1-6-5-16-6-15-8-15-5 1-11 5c-5 3-13 5-21 7s-12 3-14 5l-5 22c-5 14-24 12-58-6s-60-43-76-75-30-63-41-89-19-53-25-79-7-49-4-67 9-30 21-35 25 2 39 23 22 32 24 32c1 0 18-3 48-10s48-11 53-11 9 0 11-2c4-2 4-4 3-6l-5-8c-39-3-67-7-87-13s-44-19-73-39-43-36-40-48 11-20 24-22c4 0 11 0 23 4s29 5 51 5l48 3c19 0 30-3 34-9l2-28 1-8c0-3-1-6-3-8s-10-6-27-10-35-24-55-59-30-70-29-106c0-14 3-26 7-35l11-19c5-11 8-17 10-19s5-4 10-5c5 0 15 2 30 9l48 23 32 51c27-10 52-20 74-31s39-17 53-19 37 6 71 22c0-14 1-24 1-31s2-17 4-29 7-19 15-19 18 4 31 14 19 17 19 22l8 47 129-42c8-2 18 0 32 10 12 8 20 16 24 20s7 9 8 15-6 13-18 21l-41 16-59 24c1 3 2 6 3 7l26 18c10 8 14 21 14 38 0 18-9 34-25 50s-38 11-66-15c-24-21-33-41-29-57l2-16c-17 1-28-1-34-5l-28-36-85 54-22 11 24 63c1 4 1 7 1 10 0 6-3 12-7 18s-10 10-15 10c-7 1-20-9-41-32s-32-34-32-33l-38 27c14 10 23 18 26 26l9 32c2 2 18 2 45-4l37-3c14-1 23-1 27 0l29 17 30 12c1 1 4 4 7 9s5 8 5 12-6 9-18 15c-5 3-32 14-80 31l-74 25c1 8 3 14 5 16h63c11 1 22 7 32 19s15 24 15 38l-12 50c0 5 0 12 2 23 8 41 13 67 16 76s3 16 3 22c-1 8-2 13-6 15h-16l-27 11c-13 4-19 8-19 9s1 4 3 8l12 33c1 1 10-2 26-10s29-10 37-5c4 2 8 8 13 17s5 15 0 18zm-274-233l3 12c2 10 3 16 5 18l42-13 58-9-3-21c-2-17-4-25-6-27s-12 3-31 14zm118 69c-15 5-33 10-53 14s-31 8-31 13l15 25c8 15 15 22 17 22 0 0 3-1 7-4s14-7 29-11 24-10 26-17c1-5-1-12-5-24s-5-18-5-18zm101-78c4-19 6-32 5-38l-3-17c-10 0-20 1-29 1s-16 2-22 4-9 4-10 5 0 7 4 17l6 25 35-1zm25 108c-3-16-4-27-6-37s-3-15-5-17-10-2-26 0-25 2-25 4 0 6 1 13c2 21 4 32 6 32l22-5c24 14 34 18 33 10zm217 47l3-3c2-11 4-19 5-25l7-105c10-28 14-46 11-53s-5-10-7-10c-1 0-4 2-8 6s-20 13-46 27-40 28-44 41-5 26-3 40c4 41 7 72 11 91s9 34 17 46l16 24c3 6 6 9 7 9 0 0 5-2 15-8s17-9 19-9c6 0 10 12 11 35s-11 34-36 32c-6 0-14-5-24-13s-23-23-39-44-28-42-36-62-12-40-14-60-4-30-9-33l-20-5c-8-2-16-10-25-23s-9-28 0-48c4-8 12-17 23-27l49-37 29-25c14-12 30-21 46-29s28-13 37-13c8 0 19 4 33 11s25 11 33 14 16 7 20 11 7 15 7 32-4 32-12 45-13 21-13 23l-49 169c-2 6-5 11-8 13s-6 3-8 3-4-1-6-2-3-4-5-10-5-14-10-24-6-15-4-17 5-3 7-3l10 9z" />
</svg>