<svg xmlns="http://www.w3.org/2000/svg" viewBox="-10 0 7629 1024" width="268" height="36">
   <path fill="darkred" d="M7585.09 240l-86 172c-18 36-31 51-37 44l-21-15-209 60-36 231-18 114 370-71-33-171c-3-16-4-27-4-33s5-12 14-16 16-4 21-2 10 13 16 36l35 149c8 37 12 57 11 61s-4 9-9 15-20 11-42 14-39 5-49 7l-63 12-165 28-135 28c-5-1-8-2-12-4s-8-6-11-10-4-7-4-8l3-12 27-149c24-137 33-209 26-215s-12-13-14-21 5-15 24-21l277-76 25-51 39-87-103-4-182-5c-65-2-100-4-108-6s-13-6-15-13c-9-22-5-32 10-30l37-2 175 5 194 5c29 4 44 12 46 21zm-799 620l141-87c52-32 80-50 84-52s9-2 15-2 11 1 16 5 8 9 8 17-4 15-12 21l-35 16-178 109-76 53c-6 2-11 3-15 3-6 0-11-1-16-4s-9-7-11-11-4-8-4-12 1-9 5-15l17-23 140-332 78-165-194-30-55-8c-8-4-14-9-16-14s-4-12-4-20 2-13 5-15 17-1 42 3l193 32c46 8 71 14 76 18s9 8 11 12 4 8 4 13-1 10-3 16l-29 47-94 196zm108-777l74 142c2 4 3 8 3 12s-1 8-3 12c-5 8-11 12-21 12-12 0-21-6-27-17l-82-159c-5-9-6-18-5-29s11-17 29-17c6 0 12 3 17 8zm-986 246l-243 5c-14 0-24-3-30-9s-8-14-5-22c4-10 16-14 37-15l247-5c28 0 44 4 49 14s7 18 4 26-11 19-25 34l-202 226c6 4 10 8 12 10s6 12 10 30l66 272c3 13 4 21 4 26s-2 10-5 16-8 9-14 10-12-3-17-9-9-19-13-35l-70-290-137 133c-5 5-11 9-18 11s-14 0-18-4-7-10-7-18 2-14 6-18zm-111 309l121-156c5-6 12-10 19-10 11 0 17 6 17 17s-3 21-9 30l-78 108 143 86c15 10 22 23 18 42s-20 21-46 3zm-44-584c-1-10 1-17 4-21s10-6 20-6 17 4 20 12l54 160c3 11 4 20 2 26s-8 10-15 10-14-2-19-6c-9-6-17-26-26-56s-16-53-21-67-11-31-19-52zm435 349l245 56c13 3 24 8 32 15s13 15 13 24-3 15-9 17-20 1-39-4-29-7-31-8l-214-45-14 400-2 69c-8 16-17 23-27 22s-16-5-18-13-3-21-2-40l27-773c1-25 2-39 4-44s7-10 15-14 16-4 23 1 10 15 10 29zm-1457 82l-12-277-4-48c4-10 9-16 19-16s17 3 23 10 10 33 12 80l11 246 221-18 94-320-342-9-101-6c-7 0-22 1-46 2s-37-1-41-7-6-13-6-19c0-5 2-10 6-16s10-9 17-9 15 0 23 1 18 2 29 2l553 12c35 1 57 5 66 9s15 10 15 18-4 13-13 18c-4 2-16 4-34 4h-74l-99 313 219-15 37-3c18 6 27 14 24 24s-6 16-9 18-19 4-49 6l-158 13-163 12 6 21 57 166c3 10 5 20 4 28s-6 14-17 15-19-6-24-22l-71-205-72 7-279 23-74 6c-13-4-21-12-23-22s10-18 38-26l46-3zm-86 148c5-15 12-23 22-23s20 5 31 16c2 2 12 21 31 54s51 66 95 99 91 56 140 66 99 20 151 28 79 8 82 2 3-15 1-26l-19-106v-5c0-4 2-8 5-14s11-9 23-9 20 9 23 26l19 106c6 40 9 61 7 67s-5 11-13 17-24 9-47 8-37-2-43-3l-104-15c-101-14-184-44-248-88s-108-94-132-149l-21-45-13 30c-9 21-25 48-47 82s-40 62-52 82-23 33-32 39-18 9-26 9-14-4-17-14 3-23 16-38 23-30 33-44 23-36 39-64 31-54 43-75 24-29 34-23zm40-211l-6-1c-7 8-13 11-18 12s-13-8-23-26l-77-134c-4-6-7-14-9-20s-3-15-3-25 5-15 17-16c4 0 11 3 21 9s20 23 32 50 26 55 44 82 25 46 23 58zm416-39c-1-3-1-7-1-11s2-7 4-10 4-5 7-7 19-20 47-52l29-30 21-26 24-29c17-22 28-34 34-37s14-6 22-6 13 5 15 14-2 18-10 28l-119 136c-31 35-48 50-53 45zm233 322l-148-124c-5-4-7-10-7-18s4-14 11-18 12-8 16-8 11 4 20 12c22 20 45 41 73 63s47 40 58 50 16 21 15 32-7 17-21 18c-6 1-11-2-17-7zm-1932-494c1-10 3-17 7-21s10-6 18-4 14 5 18 9 5 17 3 39l-15 218c-2 18-3 29-5 33s-11 7-23 7-18-12-17-35zm384 528c-2-19-4-36-8-50s-6-23-5-28 4-10 8-15l33-23 179-171-440-65c-9-1-17-4-24-10s-7-15-2-25 17-14 33-12l409 60 73 10c18 5 28 14 29 24s-4 21-15 31l-103 96-127 116 6 52 301-66 33-8c14-1 23 2 28 8s5 12 3 20-5 14-10 17-13 5-23 7l-332 70 19 172c2 22 3 36 1 44s-5 14-11 16-18 0-37-10l-158-78c-13-6-22-12-27-18s-4-14 0-28 21-14 47 0l137 71-15-157-277 60c-30 6-52 9-67 8-12 0-19-3-23-8s-7-11-7-19 2-14 8-19l42-5zm409-488l-382 24-148 2-174 12c-9-2-15-5-20-9s-7-10-7-19 3-17 10-22 26-5 55 1l120-7 265-10 292-20c20-1 34 1 40 5s10 11 11 18-4 21-15 40c-6 9-14 26-24 54s-19 42-26 42-12 0-16-3c-10-6-14-13-14-21s1-17 3-23l16-32zm-630-80l-82-127s-1-1-1-3l-1-11c0-2 4-5 9-9s11-7 17-7 15 6 27 20l51 77c6 9 15 22 27 38s18 31 18 44-6 21-18 22-28-14-47-44zm202-121c15-21 27-27 36-18s14 21 17 36l20 103c2 9 0 17-3 25s-8 14-14 17-14-1-23-11c-6-5-10-11-12-21s-4-23-6-41-3-32-5-42-4-26-10-48zm267 110c0-2 1-6 3-12l53-53 42-45c8-5 17-5 25-3s14 8 16 18-13 28-43 55l-60 62c-4 2-8 3-10 3-3 0-7-1-13-4s-9-7-11-12-2-8-2-9zm-1662 405c10-28 18-49 26-63s16-21 26-21c12 1 18 8 20 21 1 10-4 29-16 59l169-15 106-11c11 2 20 5 26 10s9 11 9 17-2 11-7 15-9 6-14 6l-308 23c-12 36-20 58-23 66l-23 55c18 9 31 16 40 20l37 19 48 21 122-140 24-29c10-11 21-16 30-14s13 8 14 17-1 16-6 22l-144 170 126 59c10 5 16 11 18 20s-1 16-11 22-26 3-49-8l-119-58-84 96-17 20c-6 6-13 8-19 8-9 0-16-2-19-8s-5-11-5-15 1-7 3-10c1-2 6-9 16-18s37-40 81-94c-28-14-52-26-69-36s-32-16-45-20-22-9-25-13-3-10-3-16 2-14 6-24l21-46 23-60-111 14c-8 1-16 1-22-3s-11-8-13-12-3-8-3-11 2-7 5-13 8-9 15-10zm-133-104l119-110 50-48c5-2 10-3 15-3 10 0 17 6 20 18s-8 29-34 51l-59 54c-22 18-40 36-56 54s-31 24-44 19-19-14-15-24zm313-230l30-124c6-28 13-44 17-48s9-7 15-7c9 0 14 5 17 13l3 13c2 3 3 5 3 6l-40 155h80s23-1 26-1c27 0 41 6 41 20s-3 22-8 25-9 5-12 5-19-1-49-3h-88l-43 200c-5 22-10 35-15 39s-11 7-17 7-12-3-15-8-5-10-5-14 0-6 1-8l47-218-283-3c-18 0-27-5-27-17s5-21 11-25 12-7 18-7h293zm-221-114c-9-16-9-28-1-36s21-7 35 4c11 9 27 29 49 61s31 51 30 59-9 13-23 13c-8 0-14-3-20-9s-22-27-50-66zm265 220c2-10 6-16 14-16s15 0 21 4l23 19c36 29 55 46 56 49s2 6 2 10c-1 15-8 24-20 24-4 0-8 0-12-2s-19-14-43-36-37-36-39-42-2-9-2-10zm147-272c4 0 8 1 13 4s9 9 9 15-4 15-13 27l-28 39c-22 28-36 44-41 47s-10 4-14 4c-10 0-16-5-16-14s0-15 1-17c0-3 2-6 5-11l43-57c17-24 31-36 41-37zm77 246l134-8c75-4 120-7 134-6s20 9 20 23-8 21-26 22l-279 19c-8 18-15 35-23 52s-14 31-18 41-8 18-13 25-15 10-27 9-17-7-15-18l5-21 86-209 55-135c8-7 16-10 25-9s14 6 16 15-1 20-5 30zm66 278c-39-43-66-69-80-79s-23-18-25-22-4-9-4-13 1-8 3-12c5-10 14-14 25-14 3 0 8 0 12 2l48 44 56 54c17-20 32-37 45-51s25-28 36-44 20-25 26-29 15-4 24-1 14 9 15 17-1 14-6 20l-103 122 148 149c18 18 27 34 26 46-1 13-9 20-23 20-5 0-9 0-11-1s-9-8-20-19l-155-156-155 174c-10 10-19 14-29 9s-14-12-14-20 2-14 5-17zm-1262-343l303-100 38-14c28-8 40-5 36 11s-7 25-9 29-20 11-53 22l-315 106-72 283c-13 50-22 86-28 108s-11 43-14 64-9 37-16 49-15 17-25 15-15-7-16-15 1-21 5-38l100-400c21-85 33-130 36-132s4-3 5-3zm125 437l-116-106c-10-9-17-16-17-20s1-8 5-14c6-10 13-15 21-15s19 7 33 21l103 100 164-206-238-32c-29-4-47-7-51-9s-7-5-9-9-3-9-3-12 1-7 3-11c6-10 16-14 31-12l145 23 149 23c16 2 26 7 31 13s8 12 6 19-9 17-19 30l-174 214 129 132c13 14 21 23 24 28s4 11 4 17c-1 10-4 17-9 20s-10 6-16 6-10-3-14-8l-150-155-197 212c-6 7-13 11-21 11s-13-1-17-5-5-9-5-17 4-17 12-26l173-187zm-580-414l176-5 39-181c2-13 10-19 20-19s18 3 22 9 5 13 4 17l-38 172c17-1 34-1 53-3s29 5 31 18 0 21-6 25-25 7-55 7l-243 5 17 263 235-43c16-3 29-3 37-1s14 6 14 12-1 12-3 19l-94 285-5 17c-8 14-17 17-29 11-5-2-8-5-10-10s-2-9-2-12 1-8 3-14l83-261-229 43 12 243c1 15-1 27-4 33s-10 10-21 9-17-10-18-28l-43-706c-1-18 0-28 3-31s8-5 15-6 14 1 21 6 10 15 11 29zM660.095 679l95-258-344 92c11 2 20 5 25 8s8 6 10 10 1 16-1 37l-34 319 405-104c-11-15-19-26-24-34s-9-16-11-24-1-16 4-22 14-7 28-2c6 3 14 9 21 19s17 22 29 37 20 27 21 36 0 15-4 19-14 8-30 12l-434 107c-22 6-36 8-42 6s-10-4-14-10-5-11-4-16l43-350 2-45-42 10c-13 3-21 2-27-4s-9-14-7-23 8-15 18-18l415-111c7-2 20-2 39-1s22 16 11 46l-95 261c-9 25-16 42-22 51s-17 12-31 8l-33-20-91-54c-17-10-27-18-28-24s0-11 3-16 8-9 16-11 18 0 28 6zm-643-491c-1-17 0-27 5-29s14-4 26-5l41-1 88-2c-2-22-6-41-8-54s-4-23-5-30 1-14 5-18 12-6 24-6 20 12 24 34l4 39 5 32 348-7c74-2 113-4 116-7l40-73c10-9 18-10 28-3s13 14 9 20l-21 59c59-2 91-3 97-3 8 1 15 4 19 8s6 12 4 25c-1 6-4 10-6 14l-137 6c-4 3-12 16-24 36s-19 35-25 43-11 13-17 15-12 0-19-5-11-11-12-18c0-1 5-11 15-31l19-37-429 5c2 20 3 35 4 44s1 14 1 18c0 8-3 16-7 23s-10 10-19 9c-10 0-16-4-19-12s-4-17-6-29l-5-49c-17 0-46 2-87 4s-63 1-67-5zm127 655c29-12 47-18 53-16s10 5 12 10 3 11 1 16-11 12-26 22l-130 85c-14 10-25 14-32 13s-13-4-16-7-5-9-6-17 6-16 19-25zm-126-219c0-2 2-5 4-9s7-6 15-7 32 9 72 29 65 33 75 39 16 13 17 21-4 15-16 21-31 0-57-17c-18-11-39-20-61-28s-35-17-41-25-8-16-8-24zm92-287l97 86c6 6 11 13 14 21s4 14 4 16c0 5-3 10-7 14s-11 5-22 1-22-10-32-20l-117-106c-1-1-2-2-3-5s-2-9-2-17 9-12 27-12c6 0 13 3 22 9z" />
</svg>