<svg xmlns="http://www.w3.org/2000/svg" viewBox="-10 0 3304 1024" width="155" height="48">
   <path fill="black" d="M451.201 706.491c0-38.418 1.6-75.235 4.8-110.451 0-3.202 1.6-12.807 4.8-28.814l4.8-24.011v-14.407c0-16.007-1.6-38.418-4.8-67.232-6.4-28.813-9.6-49.624-9.6-62.43 0-28.813 17.6-43.22 52.8-43.22 19.2 0 49.6 1.601 91.2 4.803 38.4 3.202 67.2 4.802 86.4 4.802H744c6.4-3.202 11.2-4.802 14.4-4.802 16 0 24 6.403 24 19.209 0 3.202-3.2 9.604-9.6 19.209-6.4 3.202-9.6 6.403-9.6 9.604 3.2 35.217-1.6 84.84-14.4 148.87v19.209c3.2 51.225-11.2 76.837-43.2 76.837-51.2-9.605-80-30.415-86.4-62.43 3.2-12.805 9.6-19.209 19.2-19.209h14.4c6.4 3.201 11.2 4.802 14.4 4.802 12.8 0 22.4-35.217 28.8-105.649 3.2-28.814 6.4-46.422 9.6-52.825H532.8c-9.6 3.202-17.6 9.605-24 19.21v33.615c0 22.411 3.2 52.825 9.6 91.243 3.2 19.21 4.8 33.616 4.8 43.22 3.2 9.605 6.4 43.22 9.6 100.849 0 6.403 1.599 16.008 4.8 28.813 6.4 92.844 33.6 137.665 81.6 134.464 51.2 0 116.8-25.612 196.8-76.836 3.2 0 11.2-4.802 24-14.407l19.2-9.604c12.8-9.605 20.8-16.008 24-19.21h4.8c16 0 24 8.005 24 24.012 3.2 3.202 0 8.003-9.6 14.407l-192 105.648c-38.4 19.209-78.4 28.813-120 28.813h-38.4c-73.6-28.813-107.2-100.847-100.8-216.102zm-355.2 187.288c0-12.806 6.4-24.01 19.2-33.615 9.6-6.404 16-11.205 19.2-14.407l129.6-91.244c9.601-3.2 16-6.402 19.2-9.604h4.8c9.601 3.202 14.4 9.604 14.4 19.209 0 19.21-12.799 28.814-38.4 28.814-19.2 16.007-38.399 30.415-57.6 43.22-3.2 3.202-9.6 8.004-19.2 14.407-38.4 35.216-64 52.825-76.8 52.825-9.6 0-14.4-3.202-14.4-9.605zm-38.4-312.146c-3.2-3.202-4.8-9.604-4.8-19.209s4.8-14.407 14.4-14.407c9.6-3.201 17.6 0 24 9.604 12.8 3.202 28.8 12.807 48 28.814 3.2 0 8 1.6 14.4 4.803 25.6 9.604 38.4 22.41 38.4 38.418 0 9.604-4.8 16.007-14.4 19.209-12.8-3.202-24-9.605-33.6-19.21-19.2-6.403-48-22.41-86.4-48.022zm72-201.695c-3.2-9.604-4.8-16.008-4.8-19.21v-9.604c3.2 0 6.4-1.601 9.6-4.802h19.2c16 12.806 40 28.814 72 48.023 3.2 3.201 6.4 4.802 9.6 4.802 16 6.403 24 17.608 24 33.616s-6.4 24.012-19.2 24.012c-6.399 0-12.8-4.803-19.2-14.407-6.4-6.404-12.8-11.205-19.2-14.408-12.8-12.805-36.8-28.813-72-48.022zm441.6-96.045c0-6.403 1.6-16.008 4.8-28.814s4.8-24.011 4.8-33.616c3.2-9.604 1.6-14.406-4.8-14.406H374.4c-6.4 0-11.2 9.605-14.4 28.814-3.2 28.813-12.8 43.22-28.8 43.22-19.2 0-30.4-14.407-33.601-43.22-3.2-16.007-8-25.612-14.4-28.814h-9.6c-38.4-6.403-81.6-9.604-129.6-9.604h-38.4c-6.4 0-14.4 8.004-24 24.01-9.6 16.008-20.8 24.012-33.6 24.012-28.8-3.202-44.8-22.411-48-57.627 3.2-35.217 27.2-54.426 72-57.627 22.4 0 56 3.201 100.8 9.604 41.6 6.404 72 9.605 91.2 9.605h19.2c3.2 0 6.4-6.403 9.6-19.209 0-25.612 6.4-38.418 19.2-38.418 16 0 27.2 9.604 33.6 28.813 6.4 16.007 14.4 25.612 24 28.814 9.6 9.604 57.6 12.806 144 9.604h14.4c25.6 0 48-1.6 67.2-4.802 6.4-3.201 11.2-12.806 14.4-28.814 6.4-25.612 16-38.418 28.8-38.418s19.2 4.803 19.2 14.407v48.023h192c12.8 0 30.4-1.6 52.8-4.803 48-6.403 84.8-9.604 110.4-9.604 12.8 3.202 20.8 9.604 24 19.209 0 16.008-28.8 27.213-86.4 33.616h-28.8c-12.8 0-56 1.6-129.602 4.802-73.6 3.202-116.8 4.802-129.6 4.802-12.8 3.202-22.4 24.011-28.8 62.43-6.4 38.418-17.6 57.627-33.6 57.627-19.2-3.202-28.8-14.407-28.8-33.616h.002zM1272 869.769c0-9.604 6.4-17.608 19.2-24.012 9.6-6.403 16-11.205 19.2-14.405 9.6-54.427 14.4-131.263 14.4-230.51 0-3.201-1.6-11.205-4.8-24.012v-14.406c3.2-9.604 1.6-14.407-4.8-14.407-9.6 0-17.6 3.201-24 9.604-6.4 3.203-24 19.21-52.8 48.024l-19.2 19.209c-9.6 12.805-16 20.81-19.2 24.01l-19.2 19.21H1152c0-3.202-1.6-4.802-4.8-4.802v-28.814l129.6-129.66c3.2-3.203 8-9.605 14.4-19.21 25.6-32.014 38.4-60.829 38.4-86.441-3.2-57.627-14.4-88.041-33.6-91.242-3.2 0-12.8 6.403-28.8 19.209-48 41.619-80 62.428-96 62.428-9.6 0-16-4.801-19.2-14.406 0-12.806 24-36.817 72-72.034 38.4-28.813 57.6-46.421 57.6-52.825 0-9.604-11.2-27.212-33.6-52.824-22.399-22.41-33.6-40.02-33.6-52.826 0-12.805 6.4-19.209 19.2-19.209 6.4 0 17.6 12.807 33.6 38.42 19.2 32.014 35.2 51.223 48 57.626 12.8-9.604 27.2-25.611 43.2-48.022 19.201-28.814 36.8-48.023 52.8-57.628 3.2 0 9.6-4.802 19.2-14.405h9.6c9.601 0 14.4 9.604 14.4 28.813 0 9.604-9.6 27.212-28.8 52.824l-14.4 14.406-62.4 62.431c9.6 16.007 17.6 44.82 24 86.44 3.2 19.209 6.4 32.015 9.6 38.419 0 6.403 1.6 14.406 4.8 24.01 6.4 9.604 9.6 17.608 9.6 24.011 9.6 35.217 12.801 72.034 9.6 110.452 0 112.053-8 224.105-24 336.158-6.4 25.612-19.2 38.418-38.4 38.418-44.8-6.403-68.8-22.41-72-48.022zM1473.6 725.7v-24.01c0-35.218 12.8-52.826 38.4-52.826 28.8 0 72 4.803 129.601 14.407s100.801 14.407 129.601 14.407c19.2 0 27.2-12.806 24-38.418 3.2-32.015 4.8-72.035 4.8-120.058v-57.627c0-6.404-3.2-9.605-9.6-9.605h-100.8c-6.4 0-16 3.201-28.8 9.604s-24 9.605-33.6 9.605c-35.2 0-52.8-19.209-52.8-57.627 6.4-28.814 20.8-44.821 43.2-48.023 19.2 0 46.4 4.802 81.6 14.407 35.2 6.403 60.8 9.604 76.8 9.604h28.8c9.6-6.403 14.4-28.813 14.4-67.231V283.89c0-12.806-4.8-19.21-14.4-19.21-9.6 0-24-3.2-43.2-9.604-41.6-6.403-72-9.604-91.2-9.604-9.6 0-22.4 3.201-38.4 9.604s-28.8 9.605-38.4 9.605c-25.6-3.201-40-17.609-43.2-43.22 6.4-28.814 20.8-44.821 43.2-48.023 12.8 3.202 30.4 8.004 52.8 14.407 16 6.403 28.8 11.205 38.4 14.406 9.6 3.202 24 4.803 43.2 4.803h33.6c12.8 0 33.6 1.6 62.4 4.801 51.2 6.404 91.2 9.605 120 9.605 19.2 0 44.8-1.6 76.8-4.802 32-3.202 56-4.803 72-4.803 32 0 48 6.404 48 19.21 0 6.403-3.2 11.205-9.6 14.407l-4.8 4.801c-25.6 0-60.8 3.203-105.6 9.606-70.401 6.403-123.2 9.604-158.4 9.604l-4.8 9.605v38.418c-3.2 41.619 4.8 65.63 24 72.033h24c16 0 36.8-1.6 62.4-4.802h105.6c9.6 0 14.4 3.201 14.4 9.605v9.604c0 19.21-20.8 30.414-62.4 33.616h-52.8c-38.4 3.202-60.8 4.802-67.2 4.802-22.4 3.202-33.6 62.43-33.6 177.684v9.605c-3.2 32.014 3.2 48.022 19.2 48.022 22.4 6.403 57.6 8.004 105.6 4.803H2131.204c44.8-6.403 83.2-9.605 115.199-9.605 35.2 0 52.8 8.004 52.8 24.011-6.4 22.411-83.2 38.418-230.4 48.023-108.8 0-216-3.202-321.6-9.605-38.4-6.403-78.4-9.604-120-9.604-16 0-35.2 4.802-57.601 14.407-22.4 9.604-40 14.406-52.8 14.406-19.2 0-33.6-9.604-43.2-28.813zm1747.2 206.498c-28.8-28.814-76.8-67.232-144-115.255-51.2-35.217-89.6-64.03-115.2-86.44-9.6-6.404-23.999-24.012-43.2-52.826-41.6-57.627-73.6-84.84-96-81.637h-4.8c-3.2 3.2-6.4 4.801-9.6 4.801-3.2 3.203-19.2 16.008-48 38.418-32 25.613-49.6 40.02-52.8 43.221h-4.8c-3.2 6.403-11.2 12.806-24 19.21-9.6 9.604-44.8 43.219-105.6 100.847-28.8 25.612-46.4 41.62-52.8 48.023-3.2 3.2-8 4.801-14.4 4.801-12.8-3.2-19.2-9.604-19.2-19.209 3.2-3.2 4.8-6.402 4.8-9.604l4.8-4.802c16-22.41 33.6-36.817 52.8-43.22l196.8-196.894c3.2 0 9.6-9.604 19.2-28.813 3.2-3.202 6.4-8.004 9.6-14.407v-62.429c-38.4-6.403-81.6-11.205-129.6-14.407h-33.6c-25.6 0-44.8 1.6-57.6 4.803-6.4 0-16 4.801-28.8 14.406-12.8 12.805-24 19.209-33.6 19.209-19.2 0-33.6-9.605-43.2-28.814v-19.209c-3.2-41.62 22.4-60.829 76.8-57.627h4.8c3.2 0 6.4 1.6 9.6 4.802 86.4 16.008 155.199 24.012 206.398 24.012h48c19.2-3.202 28.8-33.616 28.8-91.243v-19.21h-4.8c-3.2-3.202-11.2-4.802-24-4.802-41.6-6.404-99.2-12.806-172.8-19.21-3.2 0-11.2-1.6-24-4.802h-14.4c-9.6 0-24 4.803-43.2 14.407-19.2 12.806-35.2 19.21-48 19.21-28.8 0-43.2-12.806-43.2-38.419 3.2-35.217 22.4-54.426 57.6-57.628h4.8c9.6 3.203 24 6.404 43.2 9.605 108.8 22.411 192 33.616 249.602 33.616h24c6.4-3.201 8-14.406 4.8-33.616v-9.605c0-19.209-1.6-38.418-4.8-57.627l-9.6-9.604c-6.4-9.605-9.6-17.608-9.6-24.01 0-16.009 8-24.013 24-24.013 12.8 0 22.4 4.803 28.8 14.408 3.2 12.805 9.599 27.213 19.2 43.22 6.399 22.41 6.399 54.425 0 96.045l4.8 4.802h48c28.8 0 68.8-3.201 120-9.604s89.599-9.605 115.198-9.605c35.2 0 52.8 8.004 52.8 24.012 0 12.805-6.4 19.209-19.2 19.209-3.2 0-9.6-1.6-19.2-4.803h-19.2c-16 0-38.4 3.201-67.2 9.605-16 3.202-27.2 4.802-33.6 4.802-92.799 3.201-147.198 6.403-163.198 9.605-25.6-3.202-36.801 6.402-33.6 28.813 3.2 64.03 22.4 96.045 57.6 96.045 32 0 78.4-1.6 139.199-4.803 60.8-3.2 105.6-4.801 134.399-4.801h48c9.6-3.202 14.4 1.6 14.4 14.407 0 9.604-9.6 17.607-28.8 24.01h-4.8l-283.2 9.605c-38.4 6.403-62.4 32.015-72 76.836 0 22.411 19.2 46.422 57.6 72.034 9.6 3.202 16 6.403 19.2 9.605l9.6 4.802c38.4 25.613 57.6 40.019 57.6 43.22 41.6 32.015 110.4 86.44 206.4 163.277 3.2 3.201 11.2 9.605 24 19.21 25.6 12.805 38.4 27.212 38.4 43.219 0 19.21-11.2 30.415-33.6 33.616-12.8 0-22.4-1.6-28.8-4.802z" />
</svg>