<svg width="128" height="64" viewBox="0 0 169.333 84.667" xmlns="http://www.w3.org/2000/svg">
   <path fill="#a00" d="M37.968 28.968q-1.015-.107-1.218-1.065-.203-.959-.71-.959-1.422 0-1.828 5.645 0 .32.914 2.982.913 2.662.913 2.982 0 .213-.913 1.81-.914 1.491-1.016 2.237-3.147 14.164-3.147 16.933 0 3.408 1.523 5.431.914 1.172 3.655 3.195.609 3.834.609 6.603 0 .32-.812 7.349-1.32-1.065-2.843-3.728-1.827-3.301-3.756-6.603-3.553-5.538-6.294-5.538-2.437 0-3.35 3.621l-.61 4.26q-.812 3.089-2.131 9.266-.305-5.325-1.726-14.59-1.421-5.432-3.858-5.432-1.117 0-1.523.958-1.015 2.45-1.624 7.668-.71.64-1.929 1.385 0-6.497-.304-12.248-.102-3.408-3.147-11.288Q0 42.28 0 38.872q0 .32.812-5.112 1.624-.106 2.538-.639 1.421-.852 1.421-3.727 0-.32-1.116-4.26-1.117-3.94-1.117-4.367 0-2.13 1.32-4.58l1.421-2.555q0-.213-.61-1.172-.608-.958-.608-1.278 0-.745 1.32-3.62h.812q.406.745 1.218 2.13 1.117-.746 1.523-5.432.304-4.047 2.74-4.047 1.422 0 2.539 2.023.812 1.598 1.624 3.302.914-.107 1.015-1.598.102-1.065.102-2.13l6.7 1.704q4.264 1.172 5.685 3.089.102 2.662.71 8.52.305 1.49 2.133 3.301 1.116-.32 1.218-1.81 0-1.172-.102-2.45 3.452 3.834 3.452 4.367v2.023q-.203-.639-1.117-2.13-1.421.533-1.421 2.663 0 2.236 1.929 5.005 1.523-.532 1.523-2.343-.102 1.385.304 5.219zM27.715 46.327q0-2.13-.508-6.07-.508-3.94-.508-5.538 0-2.343.61-3.94.406-.853 0-2.45-.305-1.704-1.219-2.45l-.507.533q-.508-1.172-.102-5.112.305-3.515-.913-5.006-.508 1.385-1.219 1.917-1.218-1.917-1.725-1.917.203 0-1.523.852.203-1.597-.812-4.047-1.219-3.088-3.452-3.088-2.944 0-5.584 7.029-2.233 5.644-2.233 7.987 0 1.704 2.335 5.006h.914q.101-.213.406-.746l.203 1.385q-.508 0-1.117.106-.914 1.491-.914 2.45 0 .958 3.249 8.2 0 .32-.203.533h-.61l-1.624-1.065q-.304 0-.507.213-.203.106-.305.213l-.203.32q-.101.319-.101.745 0 1.49 2.03 4.473 2.132 3.408 4.06 3.94h-1.42q-.711 0-1.32.745-.406 5.751 2.436 5.751.406 0 .914-.106.61-.213.812-.213.203-1.385.203-4.686.61.639.61 2.13-.102 1.917.1 2.236.61 1.917 2.437 1.917 2.234 0 2.234-2.556 0-1.171-.812-5.218-.203-1.065-1.93-2.875-1.725-1.811-1.725-2.876 0-1.278 1.117-2.023 1.218-.852 2.436-1.598 1.32 1.278 2.132 4.367.914 3.088 2.132 4.579.101 0 .507-.106.508-.107.61-.107.609-3.195.609-3.834zm-5.28-5.644l-.202.32-.406-.427.304-.32zm-5.583 10.65h-.914v-.427h.914zM53.805 60.385q0 .106-.203 2.875-.102 2.77-.102 4.154-1.928-.32-2.842 3.62-.71 1.279-2.03 4.154-.305.746-.406.746-.102 0-.305-.852t-.71-.852q-.305 0-.813.426-.101-1.704-1.015-6.39-.61.532-1.929 1.278-.203-.746-.406-3.834 0-2.024-1.117-2.77.508-1.277 1.32-3.94.203-1.171.71-3.408.305.64 1.32 2.024h.711q.71-.426.71-1.598v-2.023q.508.532.914 2.236.406 1.598 1.117 2.45 1.523-.64 1.523-2.13 0-.746-.406-2.237h2.132q1.827 1.172 1.827 6.07zM93.6 8.626q-.913-.106-1.32.32-.507.852-1.32 3.301.61.746.61 1.598 0 .532-.406 1.597-.305 1.065-.305 1.598-.812.426-2.233 0 .71-3.089-1.929-4.9-1.015.427-1.929 2.344-1.726-.852-2.64-.852-1.319 0-1.624.958l-.203 2.237q-.304-1.491-1.725-4.154-.813-.852-2.234-.852-1.827 0-2.64.852-1.522 1.81-2.943 5.325-1.32 3.515-1.32 5.751 0 3.94 1.929 5.006.507 0 .812-.426-.203-4.58 2.944-4.58 1.523 0 3.35 2.024 1.32 1.704 2.741 3.514 1.117-.639 1.32-2.343.203-1.171.304-2.45.61 0 2.03-.106 1.524-.106 1.828-.106 4.873 0 4.873 8.733 0 .106-.71 5.964-.813 6.283-.914 9.265l-1.219-2.13-.609-1.384q-.609.213-.609.745 0 .32.508 1.491.609 1.172.507 1.81-.812-.319-2.334-3.514-2.03-8.946-4.163-8.946-1.624 0-1.624 2.13 0 1.278.61 3.195H78.88q-.609 0-2.74-3.408-.204.107-.711 2.024-.711.852-1.93 2.556.102.32.407 1.065.406.639.507.852-.203-.107-2.03-2.876-2.132 1.278-2.132 5.219v1.81q.61 1.598 2.233 4.792 2.132 4.047 3.046 4.047 2.03 0 2.03-2.449 0-.746-.304-2.024-.203-1.384-.102-1.704l.61 4.473Q78.27 59 80.2 59q1.421 0 1.726-2.343-.102.852-.102-2.556 2.03-.426 4.67-1.384.102 3.727 2.944 3.727 2.335 0 2.741-2.769.406.213.406.64 0 .319-.609 2.236-.609 1.917-.609 2.236 0 1.81.914 4.686-2.132-.106-2.538 2.343-.102 1.917-.305 3.94-2.944 9.586-3.858 14.378-1.218-2.236-2.233-10.01-.914-6.817-3.249-9.266-1.116.106-1.218 2.13-.101 1.917-.914 2.343h-.913q-.508-1.598-.508-2.663-.203 0-.609-.532-3.655 5.005-4.568 18.53v-2.342q.101-1.598.101-1.917 0-1.385-.913-2.13-.203.106-.61.532-.406.426-.609.533-1.015-3.728-2.03-7.562-1.523-4.26-4.365-4.58l-.305-29.925q0-3.089 2.335-3.94 2.437-.96 2.437-3.196 0-1.81-2.64-6.71-.508 0-1.015.533l-.305-12.354q0-6.39 1.015-10.33h1.219q.203 2.662 1.726 2.662-.102 0 1.116-.319.508-.959 1.828-2.769Q71.266 0 74.21 0q.203.532.406 3.408.305 2.769 1.523 3.94 1.624-2.236 1.421-5.75 5.482 2.875 6.193 2.875 1.929 0 4.771-4.26-.101-.213-.101 2.023 0 1.598.812 2.45.914-.533.914-3.089zM110.554 60.385q0 .106-.203 2.875-.102 2.77-.102 4.154-1.928-.32-2.842 3.62-.71 1.279-2.03 4.154-.305.746-.407.746-.101 0-.304-.852-.203-.852-.71-.852-.305 0-.813.426-.101-1.704-1.015-6.39-.61.532-1.929 1.278-.203-.746-.406-3.834 0-2.024-1.117-2.77.508-1.277 1.32-3.94.203-1.171.71-3.408.305.64 1.32 2.024h.711q.71-.426.71-1.598v-2.023q.508.532.914 2.236.406 1.598 1.117 2.45 1.523-.64 1.523-2.13 0-.746-.406-2.237h2.132q1.827 1.172 1.827 6.07zM153.496 19.383q-.609.106-1.42-.64-1.727 1.066-1.727 4.048 0-.746.508 5.005.406 3.515.304 5.006l-.913.639q-.71 2.769-.71 4.153 0 1.172.608 2.237.61.106 1.219-.852l.812-1.491q-.914 1.384-2.132 4.26-.102.426.203 2.13.406 1.597.406 2.343 0 1.171-.71 6.602-.61 3.408-1.727 10.118-.101 0-.406-.107-.304-.106-.71-.106-1.32 0-2.843 2.556-1.523 2.45-2.538 2.45-.304-.853-.71-2.557-.203-.745-.914-1.171-3.147 2.556-3.756 9.052-.812 8.627-1.828 11.076-1.015-3.834-3.451-8.626-3.655-7.03-4.569-9.372-1.827 1.704-3.045 7.135-.812 4.26-1.726 8.414-2.03-1.065-3.35-5.325-1.015-3.515-1.015-7.136l.913-10.01-.203-25.986q.61.106 1.117.106 3.655 0 3.655-4.366 0-.746-1.219-2.663-.913-1.384-1.725-2.662-1.32-2.663-1.32-8.946 0-7.668.812-12.46.508-.533 1.523-1.492h.913q.204 2.343 1.625 2.343.609 0 2.335-1.384 1.726-1.491 3.35-1.491 1.726 0 2.436 1.917.812 1.81 1.523 3.62 1.421-.212 1.624-1.597V1.81q5.787 2.663 5.685 2.663-.304 0 1.93-1.065.608.639 1.522 2.13h.71q.102-.32.508-.852 1.219 1.171 1.422 3.94 0 2.343.101 4.58 0 1.597.203 2.769.203 1.171 1.726 1.171.305 0 1.32-.426 1.116-.426 1.421-.426 1.015 0 1.421 1.065.406 1.065.812 2.024zm-9.238 10.224q0-3.834-1.421-3.834-.406 0-1.117.532-.71.533-.812.64 0-2.983-.101-3.302 0-.32-1.016-4.047-.304-1.491-1.725-3.302-1.726-2.13-3.046-2.13-1.421 0-2.843 2.663-.71 1.597-1.42 3.301-1.32 2.982-1.727 3.621-1.015 2.024-2.436 3.195.406 1.278 1.421 3.302.102-.213.508-.746h.71q1.625 2.982 1.625 7.668 0 2.45-.406 3.408-.711 0-2.234.107-.507.426-1.218 2.662-.61 2.237-.61 3.621 0 1.172.204 1.491.71 1.598.914 2.45.304.745.304 2.768 0 2.343.102 2.876.203 1.171 1.624 1.171.304 0 2.233-1.171 1.93-1.172 2.234-1.172.304 0 2.132 1.385 1.827 1.278 2.335 1.278.609 0 .913-.426-.304-1.491.61-4.473l1.218-3.195q-.305-2.875 0-8.094.101-.32 1.827-6.283 1.218-3.94 1.218-5.964zM169.333 60.385q0 .106-.203 2.875-.101 2.77-.101 4.154-1.93-.32-2.843 3.62-.71 1.279-2.03 4.154-.305.746-.406.746-.102 0-.305-.852t-.71-.852q-.305 0-.813.426-.101-1.704-1.015-6.39-.609.532-1.929 1.278-.203-.746-.406-3.834 0-2.024-1.116-2.77.507-1.277 1.32-3.94.202-1.171.71-3.408.305.64 1.32 2.024h.71q.711-.426.711-1.598v-2.023q.508.532.914 2.236.406 1.598 1.116 2.45 1.523-.64 1.523-2.13 0-.746-.406-2.237h2.132q1.827 1.172 1.827 6.07z" />
</svg>