<?xml version="1.0" standalone="no"?>
<!DOCTYPE svg PUBLIC "-//W3C//DTD SVG 1.1//EN" "http://www.w3.org/Graphics/SVG/1.1/DTD/svg11.dtd" >
<svg xmlns="http://www.w3.org/2000/svg" xmlns:xlink="http://www.w3.org/1999/xlink" version="1.1" viewBox="-10 0 1460 1024">
   <path fill="currentColor"
d="M80 1012h-80v-976h80v32h456v-32h80v976h-80v-72h-456v72zM80 900h80v-416h80v56h136v-56h80v416h80v-792h-456v332c58.667 -66.667 89.333 -150.667 92 -252h96c2.66699 88 -60 186.667 -188 296v416zM240 580v320h136v-320h-136zM316 172l8 -8
c29.333 29.333 74.667 76 136 140c24 24 41.333 40 52 48c-18.667 56 -37.333 97.333 -56 124c-66.667 -117.333 -113.333 -218.667 -140 -304zM748 108h328c-18.667 -26.667 -37.333 -57.333 -56 -92l4 -4c37.333 13.333 76 26.667 116 40c0 13.333 -5.33301 29.333 -16 48
v8h272v40h-112c-26.667 72 -77.333 130.667 -152 176c106.667 45.333 209.333 68 308 68c-18.667 26.667 -24 61.333 -16 104c-8 0 -20 -1.33301 -36 -4c-26.667 -5.33301 -45.333 -8 -56 -8v32h-224c0 58.667 -24 98.667 -72 120h240v-40h80v312
c2.66699 45.333 -30.667 78.667 -100 100c0 -10.667 -12 -13.333 -36 -8l-52 8l-4 -16c82.667 -21.333 120 -44 112 -68v-248h-80v264h-80v-264h-80v264h-80v-264h-80v320h-80v-392h80v32h136c8 -32 10.667 -72 8 -120h-176v-40h464
c-101.333 -21.333 -182.667 -57.333 -244 -108c-66.667 40 -158.667 81.333 -276 124h-56c104 -40 202.667 -90.667 296 -152c-64 -58.667 -112 -122.667 -144 -192h-136v-40zM1084 296c56 -50.667 90.667 -100 104 -148h-272c42.667 64 98.667 113.333 168 148z" />
</svg>
