<svg xmlns="http://www.w3.org/2000/svg" width="567" height="48" viewBox="-10 0 12095 1024">
   <path fill="darkblue" d="M12074.8 609.235c-33.792 21.504-77.722 39.935-131.789 55.296-53.453 15.36-100.762 23.04-141.927 23.04-17.203 0-38.093-10.752-62.669-32.256-12.288-11.06-30.72-27.34-55.296-48.845-71.27 22.733-115.814 36.25-133.632 40.55-43.622 10.444-90.316 15.667-140.083 15.667-17.817 0-43.008-3.686-75.571-11.059-39.937-9.215-59.904-19.353-59.904-30.413v-30.413c30.106-31.948 109.979-65.433 239.616-100.454 119.808-32.563 207.359-48.844 262.655-48.844 30.105 0 45.158 6.758 45.158 20.275 0 36.864-73.728 55.296-221.184 55.296-23.348 0-73.115 11.674-149.3 35.02-79.872 24.577-120.115 42.702-120.73 54.375 3.687 2.457 13.517 5.53 29.492 9.216 16.589 3.687 27.955 5.53 34.1 5.53h81.1c24.576 0 61.133-10.138 109.67-30.414 48.538-20.274 81.102-30.412 97.69-30.412 11.674 0 31.335 14.131 58.983 42.394 28.263 28.263 51.302 42.394 69.12 42.394 30.719 0 73.113-9.216 127.181-27.649 59.597-20.275 101.684-31.641 126.26-34.098zm-1072.9-216.576c-26.419 0-39.629-9.523-39.629-28.57 0-7.987 3.072-17.818 9.216-29.49 6.759-12.289 13.517-21.198 20.275-26.727 5.53-1.843 13.517-5.223 23.962-10.138 27.648 1.843 41.472 11.674 41.472 29.491 0 11.06-6.759 24.883-20.275 41.472-12.903 15.975-24.577 23.962-35.021 23.962zm16.6 261.735c-79.258 0-118.887-27.033-118.887-81.1 0-29.492 1.229-48.539 3.687-57.14 6.143-21.504 20.275-32.256 42.393-32.256 15.36 0 23.04 7.065 23.04 21.197 0 8.602-2.765 21.504-8.294 38.707-4.915 16.59-7.373 29.184-7.373 37.785 0 17.819 23.962 26.728 71.885 26.728 26.419 0 65.741-6.144 117.965-18.432s91.546-18.432 117.965-18.432c9.83 0 14.745 5.837 14.745 17.51 0 14.131-38.4 29.184-115.199 45.159-65.741 13.516-113.05 20.275-141.927 20.275v-.001zm-119-54.375c0 22.118-66.048 39.322-198.145 51.611-91.546 8.6-173.261 12.902-245.146 12.902-56.524 0-109.363-4.301-158.515-12.902-80.487-14.131-120.73-36.557-120.73-67.277 0-43.622 82.022-78.03 246.067-103.22 114.894-17.817 218.42-26.727 310.579-26.727 6.144 0 15.36 4.915 27.648 14.747 12.288 9.83 18.432 17.817 18.432 23.96 0 26.42-56.218 39.63-168.652 39.63-4.3 0-10.138-4.301-17.51-12.903-6.76-9.216-12.903-13.824-18.432-13.824-39.937 0-103.22 7.065-189.85 21.197-108.135 17.818-162.202 36.864-162.202 57.139 0 7.373 10.137 12.902 30.413 16.589 9.216.614 22.426 2.15 39.629 4.608 51.61 10.444 117.657 15.667 198.144 15.667 43.008 0 106.906-6.143 191.693-18.432 84.787-12.902 148.377-19.353 190.77-19.353 17.204 0 25.805 5.53 25.805 16.588h.002zm-714.7-12.903c-3.072 15.975-38.4 36.558-105.983 61.748-63.283 23.347-107.213 35.02-131.789 35.02-62.054 0-103.525-38.4-124.415-115.2-7.987-30.105-13.21-46.386-15.668-48.844-27.648 7.373-60.825 23.347-99.532 47.923-54.682 34.407-87.552 54.375-98.612 59.904-39.32 19.661-77.107 29.491-113.357 29.491-47.308 0-70.962-27.033-70.962-81.1v-39.63c0-19.045 1.228-31.64 3.686-37.785 4.3-11.673 14.745-17.51 31.334-17.51 11.06 0 16.589 7.68 16.589 23.04 0 5.53-1.229 13.516-3.686 23.96-1.843 9.832-2.765 17.205-2.765 22.12v36.863c0 17.818 8.295 26.727 24.884 26.727 31.334 0 70.655-13.824 117.965-41.472a27220.227 27220.227 0 01109.67-67.276c56.524-33.178 92.774-49.767 108.749-49.767 14.745 0 24.576 15.667 29.49 47.001 7.988 49.152 13.825 78.337 17.512 87.553 12.902 31.334 36.249 47 70.04 47 25.19 0 64.206-11.059 117.045-33.177 53.452-22.732 84.171-34.099 92.159-34.099 12.902 0 22.118 5.837 27.648 17.51zm-785.45-453.427c-9.83-.614-37.17-6.145-82.022-16.589-32.564-7.373-61.133-8.91-85.71-4.607-11.06 1.842-22.118 7.373-33.176 16.589-10.446 9.214-16.282 19.352-17.511 30.412-12.288 95.846-32.87 231.936-61.747 408.269 6.143 1.843 14.13 3.687 23.96 5.53 1.845 0 27.957.307 78.338.92 34.406-3.07 88.78-4.914 163.123-5.528 3.071 2.458 8.601 6.45 16.589 11.98l2.764 1.844-25.804 26.726c-4.915 4.915-49.46 7.68-133.632 8.294-71.271.615-114.28.308-129.024-.922l-16.59 105.062-19.353 132.711c-10.444 68.199-19.353 109.977-26.726 125.337l-24.883 7.374-11.06-17.51 2.765-44.238 52.531-315.188c-10.444 1.23-21.196 1.844-32.256 1.844-46.694 0-70.964-7.987-72.807-23.962-1.228-13.516 6.145-20.89 22.119-22.118 15.36.614 44.544.308 87.552-.922 1.229-9.83 7.372-59.597 18.432-149.299 3.687-30.105 11.98-86.63 24.884-169.574 4.915-26.419 10.444-52.224 16.588-77.415 9.83-38.707 22.733-68.505 38.708-89.394 3.071-4.301 14.437-8.91 34.098-13.825s44.544-6.45 74.65-4.608c23.347 1.23 49.152 5.53 77.415 12.902 39.321 10.446 58.675 22.734 58.06 36.865 0 4.915-2.458 10.137-7.373 15.667-4.3 5.53-8.601 7.987-12.902 7.373zm-402.79 465.409c-17.817 15.36-53.452 32.256-106.904 50.688-52.839 18.432-91.546 27.648-116.122 27.648-28.876 0-59.597-14.746-92.16-44.237-15.36-14.131-39.63-41.472-72.806-82.023-23.962-29.491-39.936-44.236-47.924-44.236-20.274 0-69.733 24.268-148.377 72.806-78.643 48.537-127.18 72.806-145.613 72.806-11.674 0-18.739-9.83-21.196-29.491v-43.315c0-71.884 9.83-107.827 29.491-107.827l22.118 9.216 1.843 11.98c0 6.76-1.536 16.897-4.607 30.414-2.458 12.902-3.687 22.732-3.687 29.491v39.629c3.072-1.23 48.537-27.034 136.396-77.415 65.127-37.478 109.671-56.217 133.633-56.217s48.23 14.745 72.807 44.236c14.132 18.433 35.942 45.774 65.433 82.023 25.19 29.491 50.688 44.236 76.494 44.236 22.118 0 56.524-10.137 103.219-30.412 47.308-20.275 78.642-30.413 94.003-30.413 15.974 0 23.961 10.138 23.961 30.413zm-952.65-31.335c.614-.614.614-.92 0-.92v.92zm-1.84 0zm1.84 0zm-1.84 0h1.843l-1.843-.92v.92zm232.24 8.295c-10.444 10.444-17.51 17.203-21.196 20.275-8.602 7.372-16.897 12.288-24.884 14.746l-21.196 1.843c-15.975 1.229-40.859.307-74.65-2.765-38.708-3.687-64.512-5.53-77.415-5.53-20.89 0-37.478 1.843-49.766 5.53l-141.006 44.237c-56.524 17.203-106.29 25.805-149.298 25.805-215.654 0-322.867-25.805-321.64-77.414l.922-35.022c80.486-87.858 271.563-131.788 573.234-131.788l61.747 18.432-3.686 29.49-150.221-1.842c-74.343-.614-150.835 6.758-229.479 22.118-98.304 19.661-167.731 47.002-208.281 82.023l19.353 23.96c47.31 15.975 122.266 23.963 224.87 23.963 84.788 0 157.9-10.752 219.341-32.256l-60.825-36.865c-4.915-8.601-7.373-15.667-7.373-21.196 0-12.902 11.366-21.504 34.099-25.805l31.335-2.765c24.576-2.457 50.688.615 78.336 9.217 31.335 9.215 53.145 22.732 65.433 40.55v1.843h1.843c0-.614.308-1.23.922-1.844 12.902 0 32.256-.307 58.06-.922h58.983c50.38 0 87.86 3.995 112.436 11.982zM7124.47 97.748c3.071-3.687-1.23-7.066-12.902-10.139-8.602-1.842-15.975-2.764-22.118-2.764-54.682 0-152.68 23.04-293.99 69.12-152.985 49.766-282.932 102.912-389.837 159.437-130.867 68.813-200.602 129.333-209.203 181.557l1.843.92 6.451 29.492c36.25 33.178 91.853 58.368 166.81 75.571 60.826 14.132 122.572 21.198 185.241 21.198h150.222c86.63 0 196.301-8.295 329.011-24.884 152.372-19.046 260.813-41.472 325.325-67.277 17.818 2.458 27.034 10.138 27.648 23.04-19.046 27.648-126.566 54.682-322.56 81.1-168.347 22.734-287.54 33.486-357.581 32.257-139.47-2.458-243.917-9.216-313.344-20.276-159.744-25.804-239.616-75.57-239.616-149.299 0-60.21 67.892-128.409 203.674-204.596 111.819-62.668 248.523-120.423 410.11-173.26 151.144-49.153 257.742-73.73 319.797-73.73 20.274 0 37.477 3.38 51.61 10.139 19.045 8.601 28.569 21.811 28.569 39.629 0 34.406-44.852 76.8-134.555 127.18-58.983 33.178-137.933 68.199-236.851 105.063-116.736 43.007-198.145 62.975-244.225 59.904l-25.805-1.844-19.354-28.57 4.609-16.588c29.491-25.805 92.774-48.23 189.85-67.277 135.782-26.418 219.033-44.543 249.753-54.375 89.088-28.262 146.228-68.505 171.418-120.729zm-1186.11 501.35c-17.817 15.36-53.453 32.256-106.906 50.688-52.839 18.432-91.546 27.648-116.121 27.648-28.877 0-59.597-14.746-92.16-44.237-15.36-14.131-39.63-41.472-72.807-82.023-23.962-29.491-39.935-44.236-47.923-44.236-20.275 0-69.734 24.268-148.378 72.806-78.643 48.537-127.18 72.806-145.612 72.806-11.674 0-18.739-9.83-21.197-29.491v-43.315c0-71.884 9.83-107.827 29.491-107.827l22.118 9.216 1.844 11.98c0 6.76-1.536 16.897-4.608 30.414-2.458 12.902-3.687 22.732-3.687 29.491v39.629c3.073-1.23 48.538-27.034 136.396-77.415 65.127-37.478 109.671-56.217 133.633-56.217s48.23 14.745 72.806 44.236c14.132 18.433 35.942 45.774 65.434 82.023 25.19 29.491 50.688 44.236 76.493 44.236 22.118 0 56.524-10.137 103.219-30.412 47.31-20.275 78.643-30.413 94.004-30.413 15.974 0 23.962 10.138 23.962 30.413zm-745 10.137c-33.792 21.504-77.722 39.935-131.789 55.296-53.452 15.36-100.762 23.04-141.927 23.04-17.203 0-38.093-10.752-62.668-32.256-12.288-11.06-30.72-27.34-55.296-48.845-71.27 22.733-115.815 36.25-133.633 40.55-43.623 10.444-90.317 15.667-140.084 15.667-17.817 0-43.008-3.686-75.571-11.059-39.936-9.215-59.903-19.353-59.903-30.413v-30.413c30.105-31.948 109.978-65.433 239.615-100.454 119.808-32.563 207.36-48.844 262.656-48.844 30.106 0 45.159 6.758 45.159 20.275 0 36.864-73.729 55.296-221.186 55.296-23.348 0-73.115 11.674-149.3 35.02-79.872 24.577-120.114 42.702-120.73 54.375 3.687 2.457 13.518 5.53 29.492 9.216 16.589 3.687 27.956 5.53 34.1 5.53h81.1c24.576 0 61.133-10.138 109.671-30.414 48.537-20.274 81.1-30.412 97.69-30.412 11.673 0 31.334 14.131 58.982 42.394 28.263 28.263 51.303 42.394 69.12 42.394 30.72 0 73.113-9.216 127.181-27.649 59.597-20.275 101.684-31.641 126.26-34.098zm-797.62-37.786c3.072 4.915 4.608 10.752 4.608 17.51L4394.82 612c-6.759 3.072-14.438 4.608-23.04 4.608-22.733 0-56.525-5.53-101.376-16.589-44.237-11.058-77.722-16.588-100.455-16.588-7.372 0-30.412 8.602-69.12 25.805-49.151 22.118-88.78 38.093-118.886 47.923-50.995 17.203-96.46 25.805-136.397 25.805-38.093 0-68.505-18.74-91.238-56.218-19.661-31.948-29.492-68.505-29.492-109.67v-40.551c10.445-10.444 19.354-15.667 26.727-15.667 12.288 0 20.275 15.667 23.962 47.002 4.915 46.08 9.523 74.957 13.824 86.63 11.06 31.335 32.256 47.002 63.59 47.002 23.962 0 67.584-9.83 130.867-29.491 68.814-21.504 105.984-39.63 111.514-54.375-4.915-6.144-25.498-17.51-61.747-34.099-31.335-14.132-47.002-28.263-47.002-42.393 0-25.19 14.438-37.787 43.315-37.787 17.818 0 45.159 7.68 82.023 23.04 40.55 16.59 62.361 31.95 65.433 46.08 0 6.144 3.38 14.439 10.138 24.884 14.132 9.216 47.31 17.51 99.533 24.883 40.55 5.53 76.8 8.602 108.748 9.216zm-998.42-413.798c-.614 33.792-6.759 68.198-18.433 103.219-3.07 9.831-18.124 47.616-45.158 113.356-9.216 22.118-24.268 46.387-45.158 72.806s-33.485 44.237-37.786 53.453c-11.06 23.962-14.745 50.995-11.059 81.1-2.458 31.335 14.131 47.003 49.767 47.003 15.36 0 33.484-3.379 54.374-10.137l58.982-19.354a898.43 898.43 0 0136.865-13.824c16.589-6.144 28.876-9.216 36.863-9.216 9.216 0 15.053 2.458 17.51 7.373 1.23 13.517-1.229 23.653-7.372 30.412-3.687 3.072-12.595 7.373-26.727 12.903-13.517 4.915-38.706 13.21-75.57 24.883-48.538 12.902-82.945 19.353-103.221 19.353-44.85 0-71.577-21.504-80.179-64.51-4.302-22.12-3.994-42.702.92-61.749 0-74.957 8.91-153.907 26.727-236.852 19.046-89.088 44.851-163.737 77.415-223.949 2.458-6.143 7.987-11.98 16.59-17.51a84.615 84.615 0 0011.059-4.608c27.034-1.843 45.466 7.987 55.296 29.491 6.143 14.132 8.909 36.25 8.295 66.356zm-105.98 78.336l-33.178 136.396c-.614 4.3-3.072 30.105-7.373 77.414 24.576-35.635 47.309-82.943 68.198-141.926 22.119-62.055 33.178-112.743 33.178-152.064 0-25.19-6.143-36.863-18.431-35.02-7.988 0-16.282 13.824-24.883 41.471-2.458 10.447-8.295 35.023-17.511 73.729zm-458.76 441.447h-105.062c-29.491 0-60.519-7.68-93.082-23.04-38.093-17.817-57.139-39.629-57.139-65.434 0-44.851 54.99-82.022 164.967-111.514 84.787-22.733 160.666-34.1 227.636-34.1 16.59 0 33.792 5.223 51.61 15.669 17.817 10.444 27.955 23.347 30.412 38.707-15.36 36.864-73.421 62.975-174.182 78.336-63.898 9.83-135.476 14.745-214.733 14.745-16.59 0-31.334 2.458-44.236 7.373 9.83 11.674 26.725 21.197 50.687 28.57 20.89 6.758 40.55 10.137 58.982 10.137h115.2c42.394 0 92.775-4.915 151.143-14.745 58.369-9.831 106.905-21.505 145.613-35.022 20.89-7.372 35.02-11.058 42.393-11.058 11.06 0 16.282 8.294 15.668 24.882-46.694 21.504-106.599 39.63-179.712 54.375-70.656 14.746-132.711 22.119-186.163 22.119h-.001zm158.52-188.928l-1.843-2.766c-3.686-3.686-10.137-5.529-19.353-5.529h-35.022c-24.575 0-73.727 8.91-147.456 26.727-83.557 20.275-132.402 39.014-146.533 56.217 59.597-.614 127.488-6.45 203.674-17.51 100.147-14.745 152.371-32.256 156.672-52.531-4.3-.615-7.68-2.15-10.137-4.608h-.001zm-399.76 98.61l-7.372 15.668a8626.974 8626.974 0 00-116.122 39.629c-44.85 15.974-82.023 32.562-111.514 49.766-11.06 6.758-23.654 35.328-37.785 85.709-17.818 65.126-32.256 109.056-43.316 131.788-22.118 45.466-48.844 68.199-80.18 68.199-43.621 0-65.433-21.504-65.433-64.512 0-48.538 15.975-91.24 47.924-128.104 20.274-19.046 50.38-48.23 90.316-87.552 32.564-33.792 49.153-74.035 49.767-120.729-147.456 44.237-268.493 66.355-363.11 66.355-133.938 0-200.908-23.04-200.908-69.12 0-33.177 95.846-61.44 287.538-84.787 149.914-18.432 269.723-27.648 359.426-27.648 6.143 0 14.13 2.458 23.96 7.373s14.746 10.137 14.746 15.667c0 24.575-37.479 36.863-112.436 36.863-26.419 0-59.29-1.842-98.611-5.529l-62.67-4.607c-27.032 0-59.288 2.764-96.767 8.294-49.766 7.373-81.715 11.673-95.846 12.902-23.347 2.458-54.067 7.373-92.16 14.746-49.766 9.83-74.957 19.66-75.571 29.491 6.759 6.144 19.661 12.902 38.707 20.275 19.046 6.758 33.178 10.137 42.394 10.137h96.767c48.538 0 109.363-8.601 182.477-25.804 70.042-15.975 128.717-34.407 176.026-55.296l24.883 3.686c4.915 7.988 7.373 17.818 7.373 29.491 0 9.83-2.458 23.961-7.373 42.394-4.915 20.275-7.68 34.714-8.294 43.315 8.602-2.458 43.315-16.282 104.141-41.472 49.151-20.275 82.33-30.412 99.532-30.412zM2276.15 755.77c-63.898 50.38-95.847 98.305-95.847 143.771 0 15.36 3.38 30.105 10.138 44.236 27.033-22.732 46.08-51.61 57.139-86.63 6.144-22.733 15.668-56.525 28.57-101.376zm-790.83-363.111c-26.419 0-39.629-9.523-39.629-28.57 0-7.987 3.072-17.818 9.216-29.49 6.759-12.289 13.517-21.198 20.275-26.727 5.53-1.843 13.518-5.223 23.962-10.138 27.648 1.843 41.472 11.674 41.472 29.491 0 11.06-6.759 24.883-20.275 41.472-12.903 15.975-24.577 23.962-35.021 23.962zm16.59 261.735c-79.258 0-118.887-27.033-118.887-81.1 0-29.492 1.229-48.539 3.687-57.14 6.143-21.504 20.275-32.256 42.393-32.256 15.36 0 23.04 7.065 23.04 21.197 0 8.602-2.765 21.504-8.294 38.707-4.915 16.59-7.373 29.184-7.373 37.785 0 17.819 23.962 26.728 71.885 26.728 26.419 0 65.741-6.144 117.965-18.432s91.546-18.432 117.965-18.432c9.83 0 14.745 5.837 14.745 17.51 0 14.131-38.4 29.184-115.199 45.159-65.741 13.516-113.05 20.275-141.927 20.275v-.001zm-113.06-78.336c0 20.89-33.792 43.622-101.376 68.198-59.597 21.504-103.525 32.256-131.788 32.256-49.767 0-123.801-31.334-222.104-94.003-79.258-50.38-145.307-101.068-198.146-152.063-22.732-21.504-61.44-39.629-116.12-54.374-52.224-14.132-84.48-28.262-96.769-42.393-2.458 28.262-4.915 80.178-7.372 155.75-2.458 68.813-5.53 120.423-9.216 154.829-2.458 20.275-8.91 30.413-19.354 30.413-8.602 0-16.281-5.53-23.04-16.59-6.144-9.215-9.216-18.432-9.216-27.648 0-7.987 2.15-15.052 6.451-21.196V593.57c0-43.622 3.687-109.056 11.06-196.3 7.987-87.86 11.98-153.6 11.98-197.224 0-9.216-1.842-15.974-5.529-20.275-84.788 25.19-168.96 58.982-252.52 101.376C104.754 343.2 44.235 399.725 44.235 450.72c0 15.36 9.216 28.569 27.649 39.629 9.215 5.529 26.112 12.902 50.688 22.118 18.432 6.759 27.648 12.596 27.648 17.51-4.915 12.903-16.59 19.354-35.02 19.354-25.806 0-50.688-8.294-74.65-24.883-27.035-17.817-40.551-39.014-40.551-63.59 0-50.996 23.962-97.076 71.885-138.24 31.948-26.42 78.95-53.454 141.005-81.101 31.948-14.131 79.872-34.713 143.77-61.747 16.589-6.144 41.779-15.36 75.571-27.649 37.48-14.13 56.219-28.876 56.219-44.236 0-2.458-.614-4.915-1.844-7.373 5.53-5.53 11.06-8.294 16.589-8.294 4.3 0 10.138 3.379 17.51 10.138 7.373 6.758 13.21 10.137 17.51 10.137 10.445 0 25.805-3.379 46.08-10.137 30.72-10.446 46.387-15.668 47.003-15.668 74.342-19.66 118.579-31.027 132.71-34.099C815.618 41.53 860.776 36 899.484 36h84.787c50.38 0 96.153 6.759 137.318 20.276 58.368 19.046 87.551 48.844 87.551 89.394 0 75.571-59.904 135.783-179.712 180.634-73.728 27.648-164.659 47.616-272.793 59.904 82.33 69.428 145.612 119.502 189.85 150.222 90.931 63.284 160.357 94.925 208.281 94.925 28.263 0 68.199-11.98 119.808-35.942 52.224-24.576 81.715-36.864 88.474-36.864 17.203 0 25.805 5.836 25.805 17.51zM966.761 75.628c-98.304 0-211.047 18.432-338.228 55.297-14.745 3.072-36.864 7.987-66.356 14.745-29.49 6.144-44.236 19.661-44.236 40.55 0 6.76 1.229 14.132 3.687 22.119-1.23 27.034-.001 43.93 3.685 50.688 7.373-4.915 15.668-7.373 24.884-7.373 19.661 0 47.309 14.746 82.944 44.238 36.25 29.49 64.819 44.236 85.708 44.236 79.872 0 166.195-14.131 258.97-42.394 123.494-37.478 185.241-86.63 185.241-147.456 0-29.49-26.419-50.38-79.256-62.669-33.792-7.987-72.807-11.98-117.043-11.98z" />
</svg>