<svg xmlns="http://www.w3.org/2000/svg" viewBox="-10 0 6647 1024" width="234" height="36">
   <path fill="blue" d="M5929 785l-32 162-58-14 28-148h-32c-26 6-41 7-43 1s-3-13-2-23l4-38 405-7 7-2 44-4-10-71-246 8c-52 2-93 5-122 9v22c-21 0-40 1-58 2V474l-5-146-6-81-24 26-38-41 137-163 45 34-13 18 101 8h184l9 2 212-6-18-48 54-19 34 67 122 4c2 24 3 39 3 45-1 4-3 7-5 11s-13 4-34 2l-86-6-4 76 116 2c2 1 6 3 10 7l2 30c0 15-2 23-4 25s-10 1-28-1l-96-7 4 108 82 2h56c2 5 3 15 2 27l-4 35-132-7 3 114 109-3 6 60c-20 0-45-1-73-2s-44-3-49-4l-186-4 8 73 247 11c28 2 43 6 45 9s5 6 5 9 0 12-2 24-5 20-7 23-12 3-29 0-42-6-74-8l-144-6-38-4 6 29 183 58 100 43-22 50-205-77-54-14c-10 34-27 59-51 76s-71 20-142 12-130-21-178-40l16-52c65 21 131 33 197 35s99-14 98-50l-4-66-49 2zm-66-598l2 64 272-4 283 2c1-20 2-33 2-39l-2-29-110 4-106 4h-9l-291-4zm4 212v15l499-2 58 6-2-109-58-4-162-4-337 14zm5 75l2 126 317-10h244l-7-114-222-2-7 2zm-626-369c1-6 1-13-2-20s-5-11-4-12c0-1 5-3 13-3s18-2 28-4 17-2 19-1l4 19 6 19 154 4 114 9c39 4 61 12 67 25s9 31 10 52 1 34 0 36c-5 6-24 7-55 3-1-10-2-16-2-19v-16s-1-12-4-16-10-6-20-7l-86-9-260-8-10 2-212 4-129 9h-11c-1 11-1 18 0 19l2 38c-11-2-18-2-20 0s-14 2-35 1l-5-77c-1-34-2-51-2-51s5-2 13-3c25-2 38-2 39 0l4 15 356-9h28zm-20 159l290 11c28 1 73 2 137 2v54l-409-12 4 170-2 10-2 150 362 7c14 1 23 3 28 5s8 7 8 12l-2 6-4 37-204-7h-167l-21 1-4 161 182 16 141 7 66 2c8 9 10 19 9 30l-2 28c-126-2-258-11-397-23-118-8-234-18-349-30-1 18-1 31 1 41s1 16-2 21-19 4-49-5v-19l-4-52-6-100-2-290-6-126-2-8c-2-11 0-17 8-18s25 0 51 5l7 177v254l4 57c44 11 100 19 169 24l125 11 4-302 2-76 2-4-2-172-110-6-252 4c-4-19-5-31-4-36l2-24h12l380 5zm-589 577c22 12 46 26 71 38l-26 58c-35-15-71-33-107-54-32 11-68 22-107 32s-148 12-328 4l6-68 88 8c-21-40-35-73-39-97s-8-59-10-104l-5-85c-26 5-42 4-46-2s-5-16-4-28l2-30 130-13c144-9 246-5 308 9s96 32 102 54 11 44 12 64-1 52-5 94-10 68-18 79zm-341 18c169-2 263-19 283-48s32-68 37-120 6-83 4-93c-1-2-3-5-4-7s-10-6-26-14l-24-11-58-9-147-4-63 6-62 7c0 41 1 75 2 101s4 53 10 79 22 64 48 113zm-34-681l-51 2-1 54 9 165 5 49c-6 12-16 18-30 17s-24-4-26-7-5-22-6-57l-9-161 2-124c0-6 1-10 1-11s15-3 44-4h10l3 17 49-2 105-6 116-1c121 4 185 33 191 91v49l-14 88c-2 9-4 18-4 28s3 17 7 23l21 24c4 6 6 12 6 17s-4 12-14 21-18 14-25 14-18-10-33-31-22-40-22-57 3-33 5-48l11-66c1-10 2-21 2-35s-4-25-9-33-23-15-53-20l-69-9-131 5zm-210 660l38-17c14 10 20 17 20 19l2 28-4 7-64 38-39 15c-30 11-59 19-88 24s-41-28-39-99l2-53c1-36 1-61 1-75s2-46 6-96 7-91 11-123 10-63 19-92 22-62 40-102 40-76 65-108l-128 2c-14 1-22 0-26-4s-6-12-6-26c0-11 1-19 2-23l6-14 90 1-4-39c-1-5 0-10 4-14s16-9 36-13 31 1 32 19l2 44h37c36 0 56 1 58 4s5 10 7 20 2 19 0 28c-2 8-6 13-11 17l-19 13c-15 11-34 35-60 72s-46 82-62 134-27 110-33 176-9 110-9 134v43l-2 49c-1 24 0 38 2 44s6 9 14 10c8 2 24-3 48-15zM3186 99h294l148 8c29 2 51 11 68 25s28 24 30 30 4 22 5 48l4 335 2 229c0 71-13 119-37 143s-54 36-89 37c-36 2-65 1-86-5l-145-40 14-56c99 30 171 44 216 43 22 0 39-6 49-16s17-27 18-49 2-40 3-55l-9-304c10-140 11-223 2-251-8-20-17-36-29-46s-45-14-100-12h-358V99zm-60 375l-38 7-66 19c-9 32-20 73-32 123s-20 92-24 127-6 71-8 109 20 43 68 18l92-47c-21-102-41-202-60-300l54-15c28 135 57 273 88 413l-56 13-13-52-99 50c-39 20-70 20-92 0s-35-47-36-80 0-63 4-89c1-14 6-40 15-80l17-85 22-101c-12 0-21-2-28-4s-15-9-24-19-14-28-15-56-1-64 1-108 6-78 12-102l28-124 51 8c-8 46-15 87-21 122s-10 59-11 73l-5 85c-4 29-4 46 1 54s11 13 17 16 28-1 66-12l46-10c18-5 29-12 35-20s5-34-3-76c-1-5-3-25-5-60l-9-74-4-47 50-10c4 26 8 47 10 59l13 91c11 65 14 108 8 128s-10 31-15 33zm-1176 60l-4-298 62-4 2 28h15l115-13 1-75-101 11c-60 8-91 10-92 8s-1-6 0-11l4-47 156-15 262-9 238-2h154v58l-202 2-4 78 84 15c70 14 107 47 112 101l6 74-6 106 18 400-66 9 2-26-374 6-292 7c-8 1-19 5-36 10s-34 5-52 0zm58-212v212l2 345 126-6-12-140-5-199 11-229-94 12zm169 242l7 214 12 92 136 3 108-3h54V536l2-244c-85-4-135-4-150-3l-160 12-11 233zm17-323c98-1 198 0 302 2l2-74-160 1-138 4zm356 402l6 227 148-6-12-328 2-77c1-66-2-103-12-113s-22-17-38-22l-49-13-39-2-4 227zM1416 862c-6-21-12-39-14-51s-5-32-8-61-3-77-1-143l7-341-54 9-6 660c-21 6-41 7-60 2l-3-137 7-289 4-247-2-95-24-2v-60l124-2 86-4h152l148 4h47c-2 20-5 34-5 42s-2 14-3 17-23 3-67 1l-169-6-189 4-10 4c-20-18-30-8-30 28v22l36-4 82-7h94l126 7c60 4 96 14 108 32s18 35 19 53l-1 49-4 148c-1 62-3 120-4 170s-6 87-12 111l-20 84 60 27-24 56c-22-8-45-17-66-28-18 5-37 10-58 14s-128 0-319-12v-62zm334-375l3-184c0-16-21-27-65-32l-83-7-127-2-18 2c-4 71-6 125-6 162s-2 80-2 130 0 102 1 160c0 42 3 75 9 97s16 39 28 49 41 15 83 15c72 1 115-6 129-20s23-41 28-81l16-126zm-537 24c5 12 9 21 9 25v7c-1 4-2 10-3 16s-1 10 0 14l7 351c-11 1-24 4-38 6s-22-2-22-13l-2-107-2-195c-1-38-2-60-3-66l-2-6-85 6-41 6 4 180 4 122c1 49-1 75-7 78s-23 4-53 4l-6-317V504l-2-313c0-55 1-83 2-84l23-2c15-1 24-1 26 1s5 20 6 55l3 238 103-13-4-279c32-6 52-6 56 0s5 15 4 27-1 35 0 70v36l4 139 51-2c1 10 3 17 4 22v40l-214 18v36l111-6c19 0 41 7 69 19zm-365 30l-4 145v47l-2 20c-9 31-16 50-24 58s-21 16-39 24-36 6-55-8-30-28-34-40c10-19 18-30 24-32s13-3 19-2l17 16c8 6 14 7 20 3s11-14 13-30 4-43 5-81l2-120 1-14 2-34-2-8 4-73c0-9-1-24-3-46s-4-37-8-45-22-16-53-25l-77-19-154-15-91-2-105 2-6 221v10l-2 219 4 79c1 42 6 65 15 66l39 14 60 10 265 4 151-2-7 54-416 2c-68-2-113-16-135-40s-35-55-35-91 0-56 1-58l4-128V493l6-133-8-126c-1-4 1-7 6-11s27-8 67-10l99-3 102 5 90 6 92 9c70 8 113 23 130 45s26 46 27 70 2 36 2 37l-5 103zM410 169l-108-4-152 7 4 34-54 9-6-37H13l-3-62c11 1 24 1 42 0s32-1 42 0l2-32 54 2v28l562 7 10-31c16-4 31-3 45 3 4 10 6 16 7 17l2 13 92-2-8 59-84-4c0 21-1 33-4 35s-12 3-25 5-24-1-33-10c2-10 4-17 4-19l-4-17zM0 412l10-54 130 26 32 4-7 51-55-10zm13-135c0-19 2-31 4-36l7-22 70 11 106 25-18 60-54-15zm9 662l42-240 18-124 12-67 50 13-65 424-2 7c-19 0-37-4-55-13z" />
</svg>